<mxfile host="65bd71144e">
    <diagram id="Qiyj6FyLce5R3-hhtBNR" name="回收线程">
        <mxGraphModel dx="1572" dy="1147" grid="1" gridSize="10" guides="1" tooltips="1" connect="1" arrows="1" fold="1" page="1" pageScale="1" pageWidth="1169" pageHeight="827" math="0" shadow="0">
            <root>
                <mxCell id="0"/>
                <mxCell id="1" parent="0"/>
                <mxCell id="jwvG3ZnBP0YXBv6ZISic-1" value="Actor" style="shape=umlActor;verticalLabelPosition=bottom;verticalAlign=top;html=1;outlineConnect=0;" vertex="1" parent="1">
                    <mxGeometry x="220" y="190" width="30" height="60" as="geometry"/>
                </mxCell>
                <mxCell id="jwvG3ZnBP0YXBv6ZISic-2" value="" style="endArrow=none;html=1;" edge="1" parent="1">
                    <mxGeometry width="50" height="50" relative="1" as="geometry">
                        <mxPoint x="235" y="750" as="sourcePoint"/>
                        <mxPoint x="235" y="250" as="targetPoint"/>
                    </mxGeometry>
                </mxCell>
                <mxCell id="jwvG3ZnBP0YXBv6ZISic-3" value="Actor" style="shape=umlActor;verticalLabelPosition=bottom;verticalAlign=top;html=1;outlineConnect=0;" vertex="1" parent="1">
                    <mxGeometry x="570" y="191" width="30" height="60" as="geometry"/>
                </mxCell>
                <mxCell id="jwvG3ZnBP0YXBv6ZISic-4" value="" style="endArrow=none;html=1;" edge="1" parent="1">
                    <mxGeometry width="50" height="50" relative="1" as="geometry">
                        <mxPoint x="585" y="751" as="sourcePoint"/>
                        <mxPoint x="585" y="251" as="targetPoint"/>
                    </mxGeometry>
                </mxCell>
                <mxCell id="jwvG3ZnBP0YXBv6ZISic-5" value="Executor" style="text;html=1;strokeColor=none;fillColor=none;align=center;verticalAlign=middle;whiteSpace=wrap;rounded=0;" vertex="1" parent="1">
                    <mxGeometry x="205" y="160" width="60" height="30" as="geometry"/>
                </mxCell>
                <mxCell id="jwvG3ZnBP0YXBv6ZISic-6" value="Index" style="text;html=1;strokeColor=none;fillColor=none;align=center;verticalAlign=middle;whiteSpace=wrap;rounded=0;" vertex="1" parent="1">
                    <mxGeometry x="555" y="160" width="60" height="30" as="geometry"/>
                </mxCell>
                <mxCell id="jwvG3ZnBP0YXBv6ZISic-7" value="" style="endArrow=classic;html=1;" edge="1" parent="1">
                    <mxGeometry width="50" height="50" relative="1" as="geometry">
                        <mxPoint x="240" y="320" as="sourcePoint"/>
                        <mxPoint x="580" y="320" as="targetPoint"/>
                    </mxGeometry>
                </mxCell>
                <mxCell id="jwvG3ZnBP0YXBv6ZISic-8" value="Request&amp;nbsp;&lt;span style=&quot;font-size:10.5pt;mso-bidi-font-size:&lt;br/&gt;11.0pt;font-family:&amp;quot;Calibri&amp;quot;,&amp;quot;sans-serif&amp;quot;;mso-ascii-theme-font:minor-latin;&lt;br/&gt;mso-fareast-font-family:宋体;mso-fareast-theme-font:minor-fareast;mso-hansi-theme-font:&lt;br/&gt;minor-latin;mso-bidi-font-family:&amp;quot;Times New Roman&amp;quot;;mso-bidi-theme-font:minor-bidi;&lt;br/&gt;mso-ansi-language:EN-US;mso-fareast-language:ZH-CN;mso-bidi-language:AR-SA&quot; lang=&quot;EN-US&quot;&gt;safe_point_ts&lt;/span&gt;" style="text;html=1;strokeColor=none;fillColor=none;align=center;verticalAlign=middle;whiteSpace=wrap;rounded=0;" vertex="1" parent="1">
                    <mxGeometry x="340" y="290" width="110" height="30" as="geometry"/>
                </mxCell>
                <mxCell id="jwvG3ZnBP0YXBv6ZISic-9" value="" style="endArrow=classic;html=1;" edge="1" parent="1">
                    <mxGeometry width="50" height="50" relative="1" as="geometry">
                        <mxPoint x="580" y="360" as="sourcePoint"/>
                        <mxPoint x="240" y="360" as="targetPoint"/>
                    </mxGeometry>
                </mxCell>
                <mxCell id="jwvG3ZnBP0YXBv6ZISic-10" value="Response" style="text;html=1;strokeColor=none;fillColor=none;align=center;verticalAlign=middle;whiteSpace=wrap;rounded=0;" vertex="1" parent="1">
                    <mxGeometry x="339" y="330" width="131" height="30" as="geometry"/>
                </mxCell>
                <mxCell id="jwvG3ZnBP0YXBv6ZISic-19" value="" style="html=1;points=[];perimeter=orthogonalPerimeter;" vertex="1" parent="1">
                    <mxGeometry x="580" y="404" width="10" height="216" as="geometry"/>
                </mxCell>
                <mxCell id="jwvG3ZnBP0YXBv6ZISic-20" value="&lt;font style=&quot;font-size: 16px;&quot;&gt;垃圾清理&lt;/font&gt;" style="edgeStyle=orthogonalEdgeStyle;html=1;align=left;spacingLeft=2;endArrow=block;rounded=0;entryX=1;entryY=0;" edge="1" target="jwvG3ZnBP0YXBv6ZISic-19" parent="1">
                    <mxGeometry relative="1" as="geometry">
                        <mxPoint x="585" y="384" as="sourcePoint"/>
                        <Array as="points">
                            <mxPoint x="615" y="384"/>
                        </Array>
                    </mxGeometry>
                </mxCell>
            </root>
        </mxGraphModel>
    </diagram>
    <diagram name="添加数据" id="YuTjT_mjeTXBZo246di_">
        <mxGraphModel dx="1572" dy="814" grid="1" gridSize="10" guides="1" tooltips="1" connect="1" arrows="1" fold="1" page="1" pageScale="1" pageWidth="1169" pageHeight="827" math="0" shadow="0">
            <root>
                <mxCell id="Uce43PoVILT9uPAnI_ff-0"/>
                <mxCell id="Uce43PoVILT9uPAnI_ff-1" parent="Uce43PoVILT9uPAnI_ff-0"/>
                <mxCell id="8U3tmBDfRcJjOhpElDPN-2" value="" style="rounded=0;whiteSpace=wrap;html=1;" parent="Uce43PoVILT9uPAnI_ff-1" vertex="1">
                    <mxGeometry x="70" y="391.5" width="990" height="95" as="geometry"/>
                </mxCell>
                <mxCell id="8U3tmBDfRcJjOhpElDPN-1" value="" style="rounded=0;whiteSpace=wrap;html=1;" parent="Uce43PoVILT9uPAnI_ff-1" vertex="1">
                    <mxGeometry x="70" y="252.5" width="990" height="95" as="geometry"/>
                </mxCell>
                <mxCell id="8U3tmBDfRcJjOhpElDPN-0" value="" style="rounded=0;whiteSpace=wrap;html=1;" parent="Uce43PoVILT9uPAnI_ff-1" vertex="1">
                    <mxGeometry x="70" y="115" width="990" height="95" as="geometry"/>
                </mxCell>
                <mxCell id="Uce43PoVILT9uPAnI_ff-2" value="key3" style="rounded=0;whiteSpace=wrap;html=1;" parent="Uce43PoVILT9uPAnI_ff-1" vertex="1">
                    <mxGeometry x="780" y="130" width="120" height="60" as="geometry"/>
                </mxCell>
                <mxCell id="Uce43PoVILT9uPAnI_ff-4" value="value3(3)" style="rounded=0;whiteSpace=wrap;html=1;" parent="Uce43PoVILT9uPAnI_ff-1" vertex="1">
                    <mxGeometry x="900" y="130" width="120" height="60" as="geometry"/>
                </mxCell>
                <mxCell id="Uce43PoVILT9uPAnI_ff-6" value="key3" style="rounded=0;whiteSpace=wrap;html=1;" parent="Uce43PoVILT9uPAnI_ff-1" vertex="1">
                    <mxGeometry x="790" y="409" width="120" height="60" as="geometry"/>
                </mxCell>
                <mxCell id="Uce43PoVILT9uPAnI_ff-8" value="value3(333)" style="rounded=0;whiteSpace=wrap;html=1;" parent="Uce43PoVILT9uPAnI_ff-1" vertex="1">
                    <mxGeometry x="910" y="409" width="120" height="60" as="geometry"/>
                </mxCell>
                <mxCell id="Uce43PoVILT9uPAnI_ff-10" value="key3" style="rounded=0;whiteSpace=wrap;html=1;" parent="Uce43PoVILT9uPAnI_ff-1" vertex="1">
                    <mxGeometry x="780" y="270" width="120" height="60" as="geometry"/>
                </mxCell>
                <mxCell id="Uce43PoVILT9uPAnI_ff-12" value="value3(33)" style="rounded=0;whiteSpace=wrap;html=1;" parent="Uce43PoVILT9uPAnI_ff-1" vertex="1">
                    <mxGeometry x="900" y="270" width="120" height="60" as="geometry"/>
                </mxCell>
                <mxCell id="Uce43PoVILT9uPAnI_ff-14" value="key2" style="rounded=0;whiteSpace=wrap;html=1;" parent="Uce43PoVILT9uPAnI_ff-1" vertex="1">
                    <mxGeometry x="520" y="409" width="120" height="60" as="geometry"/>
                </mxCell>
                <mxCell id="Uce43PoVILT9uPAnI_ff-16" value="value2(222)" style="rounded=0;whiteSpace=wrap;html=1;" parent="Uce43PoVILT9uPAnI_ff-1" vertex="1">
                    <mxGeometry x="640" y="409" width="120" height="60" as="geometry"/>
                </mxCell>
                <mxCell id="Uce43PoVILT9uPAnI_ff-18" value="key2" style="rounded=0;whiteSpace=wrap;html=1;" parent="Uce43PoVILT9uPAnI_ff-1" vertex="1">
                    <mxGeometry x="510" y="270" width="120" height="60" as="geometry"/>
                </mxCell>
                <mxCell id="Uce43PoVILT9uPAnI_ff-20" value="value2(22)" style="rounded=0;whiteSpace=wrap;html=1;" parent="Uce43PoVILT9uPAnI_ff-1" vertex="1">
                    <mxGeometry x="630" y="270" width="120" height="60" as="geometry"/>
                </mxCell>
                <mxCell id="Uce43PoVILT9uPAnI_ff-22" value="key2" style="rounded=0;whiteSpace=wrap;html=1;" parent="Uce43PoVILT9uPAnI_ff-1" vertex="1">
                    <mxGeometry x="510" y="130" width="120" height="60" as="geometry"/>
                </mxCell>
                <mxCell id="Uce43PoVILT9uPAnI_ff-24" value="value2(2)" style="rounded=0;whiteSpace=wrap;html=1;" parent="Uce43PoVILT9uPAnI_ff-1" vertex="1">
                    <mxGeometry x="630" y="130" width="120" height="60" as="geometry"/>
                </mxCell>
                <mxCell id="Uce43PoVILT9uPAnI_ff-26" value="key1" style="rounded=0;whiteSpace=wrap;html=1;" parent="Uce43PoVILT9uPAnI_ff-1" vertex="1">
                    <mxGeometry x="230" y="130" width="120" height="60" as="geometry"/>
                </mxCell>
                <mxCell id="Uce43PoVILT9uPAnI_ff-28" value="value1(1)" style="rounded=0;whiteSpace=wrap;html=1;" parent="Uce43PoVILT9uPAnI_ff-1" vertex="1">
                    <mxGeometry x="350" y="130" width="120" height="60" as="geometry"/>
                </mxCell>
                <mxCell id="Uce43PoVILT9uPAnI_ff-30" value="key1" style="rounded=0;whiteSpace=wrap;html=1;" parent="Uce43PoVILT9uPAnI_ff-1" vertex="1">
                    <mxGeometry x="233" y="409" width="120" height="60" as="geometry"/>
                </mxCell>
                <mxCell id="Uce43PoVILT9uPAnI_ff-32" value="value1(111)" style="rounded=0;whiteSpace=wrap;html=1;" parent="Uce43PoVILT9uPAnI_ff-1" vertex="1">
                    <mxGeometry x="353" y="409" width="120" height="60" as="geometry"/>
                </mxCell>
                <mxCell id="Uce43PoVILT9uPAnI_ff-34" value="key1" style="rounded=0;whiteSpace=wrap;html=1;" parent="Uce43PoVILT9uPAnI_ff-1" vertex="1">
                    <mxGeometry x="231" y="270" width="120" height="60" as="geometry"/>
                </mxCell>
                <mxCell id="Uce43PoVILT9uPAnI_ff-36" value="value1(11)" style="rounded=0;whiteSpace=wrap;html=1;" parent="Uce43PoVILT9uPAnI_ff-1" vertex="1">
                    <mxGeometry x="351" y="270" width="120" height="60" as="geometry"/>
                </mxCell>
                <mxCell id="77WWfDoZTGhDILEfGy2S-1" value="ADD" style="text;html=1;strokeColor=none;fillColor=none;align=center;verticalAlign=middle;whiteSpace=wrap;rounded=0;" parent="Uce43PoVILT9uPAnI_ff-1" vertex="1">
                    <mxGeometry x="130" y="145" width="60" height="30" as="geometry"/>
                </mxCell>
                <mxCell id="77WWfDoZTGhDILEfGy2S-6" value="ADD" style="text;html=1;strokeColor=none;fillColor=none;align=center;verticalAlign=middle;whiteSpace=wrap;rounded=0;" parent="Uce43PoVILT9uPAnI_ff-1" vertex="1">
                    <mxGeometry x="125" y="285" width="60" height="30" as="geometry"/>
                </mxCell>
                <mxCell id="77WWfDoZTGhDILEfGy2S-9" value="ADD" style="text;html=1;strokeColor=none;fillColor=none;align=center;verticalAlign=middle;whiteSpace=wrap;rounded=0;" parent="Uce43PoVILT9uPAnI_ff-1" vertex="1">
                    <mxGeometry x="730" y="1150" width="60" height="30" as="geometry"/>
                </mxCell>
                <mxCell id="Oexj2z4HAWGsaJmM5xX5-0" value="ADD" style="text;html=1;strokeColor=none;fillColor=none;align=center;verticalAlign=middle;whiteSpace=wrap;rounded=0;" parent="Uce43PoVILT9uPAnI_ff-1" vertex="1">
                    <mxGeometry x="125" y="424" width="60" height="30" as="geometry"/>
                </mxCell>
                <mxCell id="Oexj2z4HAWGsaJmM5xX5-1" value="ts1" style="text;html=1;strokeColor=none;fillColor=none;align=center;verticalAlign=middle;whiteSpace=wrap;rounded=0;" parent="Uce43PoVILT9uPAnI_ff-1" vertex="1">
                    <mxGeometry x="70" y="145" width="60" height="30" as="geometry"/>
                </mxCell>
                <mxCell id="Oexj2z4HAWGsaJmM5xX5-2" value="ts2" style="text;html=1;strokeColor=none;fillColor=none;align=center;verticalAlign=middle;whiteSpace=wrap;rounded=0;" parent="Uce43PoVILT9uPAnI_ff-1" vertex="1">
                    <mxGeometry x="70" y="285" width="60" height="30" as="geometry"/>
                </mxCell>
                <mxCell id="Oexj2z4HAWGsaJmM5xX5-3" value="ts3" style="text;html=1;strokeColor=none;fillColor=none;align=center;verticalAlign=middle;whiteSpace=wrap;rounded=0;" parent="Uce43PoVILT9uPAnI_ff-1" vertex="1">
                    <mxGeometry x="70" y="424" width="60" height="30" as="geometry"/>
                </mxCell>
            </root>
        </mxGraphModel>
    </diagram>
    <diagram id="CKsTaNWD0P1iZ0fZwkxA" name="遍历排序方式">
        <mxGraphModel dx="1572" dy="1147" grid="1" gridSize="10" guides="1" tooltips="1" connect="1" arrows="1" fold="1" page="1" pageScale="1" pageWidth="1169" pageHeight="827" math="0" shadow="0">
            <root>
                <mxCell id="0"/>
                <mxCell id="1" parent="0"/>
                <mxCell id="wrEZMdOSsmUCH9gFZImP-3" value="" style="rounded=0;whiteSpace=wrap;html=1;" parent="1" vertex="1">
                    <mxGeometry x="200" y="557" width="620" height="263" as="geometry"/>
                </mxCell>
                <mxCell id="wrEZMdOSsmUCH9gFZImP-2" value="" style="rounded=0;whiteSpace=wrap;html=1;" parent="1" vertex="1">
                    <mxGeometry x="200" y="279" width="620" height="270" as="geometry"/>
                </mxCell>
                <mxCell id="wrEZMdOSsmUCH9gFZImP-1" value="" style="rounded=0;whiteSpace=wrap;html=1;" parent="1" vertex="1">
                    <mxGeometry x="200" y="9" width="620" height="260" as="geometry"/>
                </mxCell>
                <mxCell id="nH-MHcHKfnYoZ0DUlkXP-1" value="key3" style="rounded=0;whiteSpace=wrap;html=1;" parent="1" vertex="1">
                    <mxGeometry x="232" y="580" width="120" height="60" as="geometry"/>
                </mxCell>
                <mxCell id="nH-MHcHKfnYoZ0DUlkXP-2" value="ts3" style="rounded=0;whiteSpace=wrap;html=1;" parent="1" vertex="1">
                    <mxGeometry x="352" y="580" width="120" height="60" as="geometry"/>
                </mxCell>
                <mxCell id="nH-MHcHKfnYoZ0DUlkXP-3" value="value3(333)" style="rounded=0;whiteSpace=wrap;html=1;" parent="1" vertex="1">
                    <mxGeometry x="552" y="580" width="120" height="60" as="geometry"/>
                </mxCell>
                <mxCell id="nH-MHcHKfnYoZ0DUlkXP-4" value="put" style="rounded=0;whiteSpace=wrap;html=1;" parent="1" vertex="1">
                    <mxGeometry x="672" y="580" width="120" height="60" as="geometry"/>
                </mxCell>
                <mxCell id="nH-MHcHKfnYoZ0DUlkXP-5" value="key3" style="rounded=0;whiteSpace=wrap;html=1;" parent="1" vertex="1">
                    <mxGeometry x="232" y="663" width="120" height="60" as="geometry"/>
                </mxCell>
                <mxCell id="nH-MHcHKfnYoZ0DUlkXP-6" value="ts2" style="rounded=0;whiteSpace=wrap;html=1;" parent="1" vertex="1">
                    <mxGeometry x="352" y="663" width="120" height="60" as="geometry"/>
                </mxCell>
                <mxCell id="nH-MHcHKfnYoZ0DUlkXP-7" value="value3(33)" style="rounded=0;whiteSpace=wrap;html=1;" parent="1" vertex="1">
                    <mxGeometry x="552" y="663" width="120" height="60" as="geometry"/>
                </mxCell>
                <mxCell id="nH-MHcHKfnYoZ0DUlkXP-8" value="put" style="rounded=0;whiteSpace=wrap;html=1;" parent="1" vertex="1">
                    <mxGeometry x="672" y="663" width="120" height="60" as="geometry"/>
                </mxCell>
                <mxCell id="nH-MHcHKfnYoZ0DUlkXP-9" value="key3" style="rounded=0;whiteSpace=wrap;html=1;" parent="1" vertex="1">
                    <mxGeometry x="233" y="747" width="120" height="60" as="geometry"/>
                </mxCell>
                <mxCell id="nH-MHcHKfnYoZ0DUlkXP-10" value="ts1" style="rounded=0;whiteSpace=wrap;html=1;" parent="1" vertex="1">
                    <mxGeometry x="353" y="747" width="120" height="60" as="geometry"/>
                </mxCell>
                <mxCell id="nH-MHcHKfnYoZ0DUlkXP-11" value="value3(3)" style="rounded=0;whiteSpace=wrap;html=1;" parent="1" vertex="1">
                    <mxGeometry x="553" y="747" width="120" height="60" as="geometry"/>
                </mxCell>
                <mxCell id="nH-MHcHKfnYoZ0DUlkXP-12" value="put" style="rounded=0;whiteSpace=wrap;html=1;" parent="1" vertex="1">
                    <mxGeometry x="673" y="747" width="120" height="60" as="geometry"/>
                </mxCell>
                <mxCell id="nH-MHcHKfnYoZ0DUlkXP-13" value="key2" style="rounded=0;whiteSpace=wrap;html=1;" parent="1" vertex="1">
                    <mxGeometry x="231" y="303" width="120" height="60" as="geometry"/>
                </mxCell>
                <mxCell id="nH-MHcHKfnYoZ0DUlkXP-14" value="ts3" style="rounded=0;whiteSpace=wrap;html=1;" parent="1" vertex="1">
                    <mxGeometry x="351" y="303" width="120" height="60" as="geometry"/>
                </mxCell>
                <mxCell id="nH-MHcHKfnYoZ0DUlkXP-15" value="value2(222)" style="rounded=0;whiteSpace=wrap;html=1;" parent="1" vertex="1">
                    <mxGeometry x="551" y="303" width="120" height="60" as="geometry"/>
                </mxCell>
                <mxCell id="nH-MHcHKfnYoZ0DUlkXP-16" value="put" style="rounded=0;whiteSpace=wrap;html=1;" parent="1" vertex="1">
                    <mxGeometry x="671" y="303" width="120" height="60" as="geometry"/>
                </mxCell>
                <mxCell id="nH-MHcHKfnYoZ0DUlkXP-17" value="key2" style="rounded=0;whiteSpace=wrap;html=1;" parent="1" vertex="1">
                    <mxGeometry x="231" y="385" width="120" height="60" as="geometry"/>
                </mxCell>
                <mxCell id="nH-MHcHKfnYoZ0DUlkXP-18" value="ts2" style="rounded=0;whiteSpace=wrap;html=1;" parent="1" vertex="1">
                    <mxGeometry x="351" y="385" width="120" height="60" as="geometry"/>
                </mxCell>
                <mxCell id="nH-MHcHKfnYoZ0DUlkXP-19" value="value2(22)" style="rounded=0;whiteSpace=wrap;html=1;" parent="1" vertex="1">
                    <mxGeometry x="551" y="385" width="120" height="60" as="geometry"/>
                </mxCell>
                <mxCell id="nH-MHcHKfnYoZ0DUlkXP-20" value="put" style="rounded=0;whiteSpace=wrap;html=1;" parent="1" vertex="1">
                    <mxGeometry x="671" y="385" width="120" height="60" as="geometry"/>
                </mxCell>
                <mxCell id="nH-MHcHKfnYoZ0DUlkXP-21" value="key2" style="rounded=0;whiteSpace=wrap;html=1;" parent="1" vertex="1">
                    <mxGeometry x="232" y="469" width="120" height="60" as="geometry"/>
                </mxCell>
                <mxCell id="nH-MHcHKfnYoZ0DUlkXP-22" value="ts1" style="rounded=0;whiteSpace=wrap;html=1;" parent="1" vertex="1">
                    <mxGeometry x="352" y="469" width="120" height="60" as="geometry"/>
                </mxCell>
                <mxCell id="nH-MHcHKfnYoZ0DUlkXP-23" value="value2(2)" style="rounded=0;whiteSpace=wrap;html=1;" parent="1" vertex="1">
                    <mxGeometry x="552" y="469" width="120" height="60" as="geometry"/>
                </mxCell>
                <mxCell id="nH-MHcHKfnYoZ0DUlkXP-24" value="put" style="rounded=0;whiteSpace=wrap;html=1;" parent="1" vertex="1">
                    <mxGeometry x="672" y="469" width="120" height="60" as="geometry"/>
                </mxCell>
                <mxCell id="nH-MHcHKfnYoZ0DUlkXP-25" value="key1" style="rounded=0;whiteSpace=wrap;html=1;" parent="1" vertex="1">
                    <mxGeometry x="233" y="30" width="120" height="60" as="geometry"/>
                </mxCell>
                <mxCell id="nH-MHcHKfnYoZ0DUlkXP-26" value="ts3" style="rounded=0;whiteSpace=wrap;html=1;" parent="1" vertex="1">
                    <mxGeometry x="353" y="30" width="120" height="60" as="geometry"/>
                </mxCell>
                <mxCell id="nH-MHcHKfnYoZ0DUlkXP-27" value="value3(111)" style="rounded=0;whiteSpace=wrap;html=1;" parent="1" vertex="1">
                    <mxGeometry x="553" y="30" width="120" height="60" as="geometry"/>
                </mxCell>
                <mxCell id="nH-MHcHKfnYoZ0DUlkXP-28" value="put" style="rounded=0;whiteSpace=wrap;html=1;" parent="1" vertex="1">
                    <mxGeometry x="673" y="30" width="120" height="60" as="geometry"/>
                </mxCell>
                <mxCell id="nH-MHcHKfnYoZ0DUlkXP-29" value="key1" style="rounded=0;whiteSpace=wrap;html=1;" parent="1" vertex="1">
                    <mxGeometry x="233" y="112" width="120" height="60" as="geometry"/>
                </mxCell>
                <mxCell id="nH-MHcHKfnYoZ0DUlkXP-30" value="ts2" style="rounded=0;whiteSpace=wrap;html=1;" parent="1" vertex="1">
                    <mxGeometry x="353" y="112" width="120" height="60" as="geometry"/>
                </mxCell>
                <mxCell id="nH-MHcHKfnYoZ0DUlkXP-31" value="value3(11)" style="rounded=0;whiteSpace=wrap;html=1;" parent="1" vertex="1">
                    <mxGeometry x="553" y="112" width="120" height="60" as="geometry"/>
                </mxCell>
                <mxCell id="nH-MHcHKfnYoZ0DUlkXP-32" value="put" style="rounded=0;whiteSpace=wrap;html=1;" parent="1" vertex="1">
                    <mxGeometry x="673" y="112" width="120" height="60" as="geometry"/>
                </mxCell>
                <mxCell id="nH-MHcHKfnYoZ0DUlkXP-33" value="key1" style="rounded=0;whiteSpace=wrap;html=1;" parent="1" vertex="1">
                    <mxGeometry x="234" y="196" width="120" height="60" as="geometry"/>
                </mxCell>
                <mxCell id="nH-MHcHKfnYoZ0DUlkXP-34" value="ts1" style="rounded=0;whiteSpace=wrap;html=1;" parent="1" vertex="1">
                    <mxGeometry x="354" y="196" width="120" height="60" as="geometry"/>
                </mxCell>
                <mxCell id="nH-MHcHKfnYoZ0DUlkXP-35" value="value3(1)" style="rounded=0;whiteSpace=wrap;html=1;" parent="1" vertex="1">
                    <mxGeometry x="554" y="196" width="120" height="60" as="geometry"/>
                </mxCell>
                <mxCell id="nH-MHcHKfnYoZ0DUlkXP-36" value="put" style="rounded=0;whiteSpace=wrap;html=1;" parent="1" vertex="1">
                    <mxGeometry x="674" y="196" width="120" height="60" as="geometry"/>
                </mxCell>
            </root>
        </mxGraphModel>
    </diagram>
    <diagram name="gc 删除策略1" id="uBQEOVj7Big33J2xHj_5">
        <mxGraphModel dx="1572" dy="1147" grid="1" gridSize="10" guides="1" tooltips="1" connect="1" arrows="1" fold="1" page="1" pageScale="1" pageWidth="1169" pageHeight="827" math="0" shadow="0">
            <root>
                <mxCell id="LZpmcgXYDGt0XbQmIDzG-0"/>
                <mxCell id="LZpmcgXYDGt0XbQmIDzG-1" parent="LZpmcgXYDGt0XbQmIDzG-0"/>
                <mxCell id="LZpmcgXYDGt0XbQmIDzG-2" value="key3" style="rounded=0;whiteSpace=wrap;html=1;" parent="LZpmcgXYDGt0XbQmIDzG-1" vertex="1">
                    <mxGeometry x="1060" y="202.5" width="120" height="60" as="geometry"/>
                </mxCell>
                <mxCell id="LZpmcgXYDGt0XbQmIDzG-3" value="ts3" style="rounded=0;whiteSpace=wrap;html=1;" parent="LZpmcgXYDGt0XbQmIDzG-1" vertex="1">
                    <mxGeometry x="1180" y="202.5" width="120" height="60" as="geometry"/>
                </mxCell>
                <mxCell id="LZpmcgXYDGt0XbQmIDzG-4" value="value3(333)" style="rounded=0;whiteSpace=wrap;html=1;" parent="LZpmcgXYDGt0XbQmIDzG-1" vertex="1">
                    <mxGeometry x="1318" y="202.5" width="120" height="60" as="geometry"/>
                </mxCell>
                <mxCell id="LZpmcgXYDGt0XbQmIDzG-5" value="put" style="rounded=0;whiteSpace=wrap;html=1;" parent="LZpmcgXYDGt0XbQmIDzG-1" vertex="1">
                    <mxGeometry x="1438" y="202.5" width="120" height="60" as="geometry"/>
                </mxCell>
                <mxCell id="LZpmcgXYDGt0XbQmIDzG-6" value="key3" style="rounded=0;whiteSpace=wrap;html=1;" parent="LZpmcgXYDGt0XbQmIDzG-1" vertex="1">
                    <mxGeometry x="1060" y="285.5" width="120" height="60" as="geometry"/>
                </mxCell>
                <mxCell id="LZpmcgXYDGt0XbQmIDzG-7" value="ts2" style="rounded=0;whiteSpace=wrap;html=1;" parent="LZpmcgXYDGt0XbQmIDzG-1" vertex="1">
                    <mxGeometry x="1180" y="285.5" width="120" height="60" as="geometry"/>
                </mxCell>
                <mxCell id="LZpmcgXYDGt0XbQmIDzG-8" value="value3(33)" style="rounded=0;whiteSpace=wrap;html=1;" parent="LZpmcgXYDGt0XbQmIDzG-1" vertex="1">
                    <mxGeometry x="1318" y="285.5" width="120" height="60" as="geometry"/>
                </mxCell>
                <mxCell id="LZpmcgXYDGt0XbQmIDzG-9" value="put" style="rounded=0;whiteSpace=wrap;html=1;" parent="LZpmcgXYDGt0XbQmIDzG-1" vertex="1">
                    <mxGeometry x="1438" y="285.5" width="120" height="60" as="geometry"/>
                </mxCell>
                <mxCell id="LZpmcgXYDGt0XbQmIDzG-10" value="key3" style="rounded=0;whiteSpace=wrap;html=1;dashed=1;" parent="LZpmcgXYDGt0XbQmIDzG-1" vertex="1">
                    <mxGeometry x="1061" y="408.5" width="120" height="60" as="geometry"/>
                </mxCell>
                <mxCell id="LZpmcgXYDGt0XbQmIDzG-11" value="ts1" style="rounded=0;whiteSpace=wrap;html=1;dashed=1;" parent="LZpmcgXYDGt0XbQmIDzG-1" vertex="1">
                    <mxGeometry x="1181" y="408.5" width="120" height="60" as="geometry"/>
                </mxCell>
                <mxCell id="LZpmcgXYDGt0XbQmIDzG-12" value="value3(3)" style="rounded=0;whiteSpace=wrap;html=1;dashed=1;" parent="LZpmcgXYDGt0XbQmIDzG-1" vertex="1">
                    <mxGeometry x="1319" y="408.5" width="120" height="60" as="geometry"/>
                </mxCell>
                <mxCell id="LZpmcgXYDGt0XbQmIDzG-13" value="put" style="rounded=0;whiteSpace=wrap;html=1;dashed=1;" parent="LZpmcgXYDGt0XbQmIDzG-1" vertex="1">
                    <mxGeometry x="1439" y="408.5" width="120" height="60" as="geometry"/>
                </mxCell>
                <mxCell id="LZpmcgXYDGt0XbQmIDzG-14" value="key2" style="rounded=0;whiteSpace=wrap;html=1;" parent="LZpmcgXYDGt0XbQmIDzG-1" vertex="1">
                    <mxGeometry x="530" y="204" width="120" height="60" as="geometry"/>
                </mxCell>
                <mxCell id="LZpmcgXYDGt0XbQmIDzG-15" value="ts3" style="rounded=0;whiteSpace=wrap;html=1;" parent="LZpmcgXYDGt0XbQmIDzG-1" vertex="1">
                    <mxGeometry x="650" y="204" width="120" height="60" as="geometry"/>
                </mxCell>
                <mxCell id="LZpmcgXYDGt0XbQmIDzG-16" value="value2(222)" style="rounded=0;whiteSpace=wrap;html=1;" parent="LZpmcgXYDGt0XbQmIDzG-1" vertex="1">
                    <mxGeometry x="788" y="204" width="120" height="60" as="geometry"/>
                </mxCell>
                <mxCell id="LZpmcgXYDGt0XbQmIDzG-17" value="put" style="rounded=0;whiteSpace=wrap;html=1;" parent="LZpmcgXYDGt0XbQmIDzG-1" vertex="1">
                    <mxGeometry x="908" y="204" width="120" height="60" as="geometry"/>
                </mxCell>
                <mxCell id="LZpmcgXYDGt0XbQmIDzG-18" value="key2" style="rounded=0;whiteSpace=wrap;html=1;" parent="LZpmcgXYDGt0XbQmIDzG-1" vertex="1">
                    <mxGeometry x="530" y="286" width="120" height="60" as="geometry"/>
                </mxCell>
                <mxCell id="LZpmcgXYDGt0XbQmIDzG-19" value="ts2" style="rounded=0;whiteSpace=wrap;html=1;" parent="LZpmcgXYDGt0XbQmIDzG-1" vertex="1">
                    <mxGeometry x="650" y="286" width="120" height="60" as="geometry"/>
                </mxCell>
                <mxCell id="LZpmcgXYDGt0XbQmIDzG-20" value="value2(22)" style="rounded=0;whiteSpace=wrap;html=1;" parent="LZpmcgXYDGt0XbQmIDzG-1" vertex="1">
                    <mxGeometry x="788" y="286" width="120" height="60" as="geometry"/>
                </mxCell>
                <mxCell id="LZpmcgXYDGt0XbQmIDzG-21" value="put" style="rounded=0;whiteSpace=wrap;html=1;" parent="LZpmcgXYDGt0XbQmIDzG-1" vertex="1">
                    <mxGeometry x="908" y="286" width="120" height="60" as="geometry"/>
                </mxCell>
                <mxCell id="LZpmcgXYDGt0XbQmIDzG-22" value="key2" style="rounded=0;whiteSpace=wrap;html=1;dashed=1;" parent="LZpmcgXYDGt0XbQmIDzG-1" vertex="1">
                    <mxGeometry x="531" y="409" width="120" height="60" as="geometry"/>
                </mxCell>
                <mxCell id="LZpmcgXYDGt0XbQmIDzG-23" value="ts1" style="rounded=0;whiteSpace=wrap;html=1;dashed=1;" parent="LZpmcgXYDGt0XbQmIDzG-1" vertex="1">
                    <mxGeometry x="651" y="409" width="120" height="60" as="geometry"/>
                </mxCell>
                <mxCell id="LZpmcgXYDGt0XbQmIDzG-24" value="value2(2)" style="rounded=0;whiteSpace=wrap;html=1;dashed=1;" parent="LZpmcgXYDGt0XbQmIDzG-1" vertex="1">
                    <mxGeometry x="789" y="409" width="120" height="60" as="geometry"/>
                </mxCell>
                <mxCell id="LZpmcgXYDGt0XbQmIDzG-25" value="put" style="rounded=0;whiteSpace=wrap;html=1;dashed=1;" parent="LZpmcgXYDGt0XbQmIDzG-1" vertex="1">
                    <mxGeometry x="909" y="409" width="120" height="60" as="geometry"/>
                </mxCell>
                <mxCell id="LZpmcgXYDGt0XbQmIDzG-26" value="key1" style="rounded=0;whiteSpace=wrap;html=1;" parent="LZpmcgXYDGt0XbQmIDzG-1" vertex="1">
                    <mxGeometry x="21" y="204" width="120" height="60" as="geometry"/>
                </mxCell>
                <mxCell id="LZpmcgXYDGt0XbQmIDzG-27" value="ts3" style="rounded=0;whiteSpace=wrap;html=1;" parent="LZpmcgXYDGt0XbQmIDzG-1" vertex="1">
                    <mxGeometry x="141" y="204" width="120" height="60" as="geometry"/>
                </mxCell>
                <mxCell id="LZpmcgXYDGt0XbQmIDzG-28" value="value3(111)" style="rounded=0;whiteSpace=wrap;html=1;" parent="LZpmcgXYDGt0XbQmIDzG-1" vertex="1">
                    <mxGeometry x="281" y="204" width="120" height="60" as="geometry"/>
                </mxCell>
                <mxCell id="LZpmcgXYDGt0XbQmIDzG-29" value="put" style="rounded=0;whiteSpace=wrap;html=1;" parent="LZpmcgXYDGt0XbQmIDzG-1" vertex="1">
                    <mxGeometry x="401" y="204" width="120" height="60" as="geometry"/>
                </mxCell>
                <mxCell id="LZpmcgXYDGt0XbQmIDzG-30" value="key1" style="rounded=0;whiteSpace=wrap;html=1;" parent="LZpmcgXYDGt0XbQmIDzG-1" vertex="1">
                    <mxGeometry x="21" y="286" width="120" height="60" as="geometry"/>
                </mxCell>
                <mxCell id="LZpmcgXYDGt0XbQmIDzG-31" value="ts2" style="rounded=0;whiteSpace=wrap;html=1;" parent="LZpmcgXYDGt0XbQmIDzG-1" vertex="1">
                    <mxGeometry x="141" y="286" width="120" height="60" as="geometry"/>
                </mxCell>
                <mxCell id="LZpmcgXYDGt0XbQmIDzG-32" value="value3(11)" style="rounded=0;whiteSpace=wrap;html=1;" parent="LZpmcgXYDGt0XbQmIDzG-1" vertex="1">
                    <mxGeometry x="281" y="286" width="120" height="60" as="geometry"/>
                </mxCell>
                <mxCell id="LZpmcgXYDGt0XbQmIDzG-33" value="put" style="rounded=0;whiteSpace=wrap;html=1;" parent="LZpmcgXYDGt0XbQmIDzG-1" vertex="1">
                    <mxGeometry x="401" y="286" width="120" height="60" as="geometry"/>
                </mxCell>
                <mxCell id="LZpmcgXYDGt0XbQmIDzG-34" value="key1" style="rounded=0;whiteSpace=wrap;html=1;dashed=1;" parent="LZpmcgXYDGt0XbQmIDzG-1" vertex="1">
                    <mxGeometry x="22" y="409" width="120" height="60" as="geometry"/>
                </mxCell>
                <mxCell id="LZpmcgXYDGt0XbQmIDzG-35" value="ts1" style="rounded=0;whiteSpace=wrap;html=1;dashed=1;" parent="LZpmcgXYDGt0XbQmIDzG-1" vertex="1">
                    <mxGeometry x="142" y="409" width="120" height="60" as="geometry"/>
                </mxCell>
                <mxCell id="LZpmcgXYDGt0XbQmIDzG-36" value="value3(1)" style="rounded=0;whiteSpace=wrap;html=1;dashed=1;" parent="LZpmcgXYDGt0XbQmIDzG-1" vertex="1">
                    <mxGeometry x="282" y="409" width="120" height="60" as="geometry"/>
                </mxCell>
                <mxCell id="LZpmcgXYDGt0XbQmIDzG-37" value="put" style="rounded=0;whiteSpace=wrap;html=1;dashed=1;" parent="LZpmcgXYDGt0XbQmIDzG-1" vertex="1">
                    <mxGeometry x="402" y="409" width="120" height="60" as="geometry"/>
                </mxCell>
                <mxCell id="4puNHWN6tXLSTWVR0Okg-1" value="" style="endArrow=none;html=1;startArrow=none;" parent="LZpmcgXYDGt0XbQmIDzG-1" source="4puNHWN6tXLSTWVR0Okg-3" edge="1">
                    <mxGeometry width="50" height="50" relative="1" as="geometry">
                        <mxPoint x="20" y="380" as="sourcePoint"/>
                        <mxPoint x="1570" y="380" as="targetPoint"/>
                    </mxGeometry>
                </mxCell>
                <mxCell id="4puNHWN6tXLSTWVR0Okg-2" value="" style="endArrow=none;html=1;" parent="LZpmcgXYDGt0XbQmIDzG-1" target="4puNHWN6tXLSTWVR0Okg-3" edge="1">
                    <mxGeometry width="50" height="50" relative="1" as="geometry">
                        <mxPoint x="20" y="380" as="sourcePoint"/>
                        <mxPoint x="1570" y="380" as="targetPoint"/>
                    </mxGeometry>
                </mxCell>
                <mxCell id="4puNHWN6tXLSTWVR0Okg-3" value="ts1" style="text;html=1;strokeColor=none;fillColor=none;align=center;verticalAlign=middle;whiteSpace=wrap;rounded=0;" parent="LZpmcgXYDGt0XbQmIDzG-1" vertex="1">
                    <mxGeometry x="621" y="364" width="60" height="30" as="geometry"/>
                </mxCell>
            </root>
        </mxGraphModel>
    </diagram>
    <diagram name="gc 删除策略2" id="klGy3I6LPGh9w4HHLsLM">
        <mxGraphModel dx="1572" dy="1147" grid="1" gridSize="10" guides="1" tooltips="1" connect="1" arrows="1" fold="1" page="1" pageScale="1" pageWidth="1169" pageHeight="827" math="0" shadow="0">
            <root>
                <mxCell id="_aVRL1__8PeE6xzxgTGp-0"/>
                <mxCell id="_aVRL1__8PeE6xzxgTGp-1" parent="_aVRL1__8PeE6xzxgTGp-0"/>
                <mxCell id="_aVRL1__8PeE6xzxgTGp-2" value="key3" style="rounded=0;whiteSpace=wrap;html=1;" parent="_aVRL1__8PeE6xzxgTGp-1" vertex="1">
                    <mxGeometry x="1060" y="202.5" width="120" height="60" as="geometry"/>
                </mxCell>
                <mxCell id="_aVRL1__8PeE6xzxgTGp-3" value="ts3" style="rounded=0;whiteSpace=wrap;html=1;" parent="_aVRL1__8PeE6xzxgTGp-1" vertex="1">
                    <mxGeometry x="1180" y="202.5" width="120" height="60" as="geometry"/>
                </mxCell>
                <mxCell id="_aVRL1__8PeE6xzxgTGp-4" value="value3(333)" style="rounded=0;whiteSpace=wrap;html=1;" parent="_aVRL1__8PeE6xzxgTGp-1" vertex="1">
                    <mxGeometry x="1318" y="202.5" width="120" height="60" as="geometry"/>
                </mxCell>
                <mxCell id="_aVRL1__8PeE6xzxgTGp-5" value="put" style="rounded=0;whiteSpace=wrap;html=1;" parent="_aVRL1__8PeE6xzxgTGp-1" vertex="1">
                    <mxGeometry x="1438" y="202.5" width="120" height="60" as="geometry"/>
                </mxCell>
                <mxCell id="_aVRL1__8PeE6xzxgTGp-6" value="key3" style="rounded=0;whiteSpace=wrap;html=1;dashed=1;" parent="_aVRL1__8PeE6xzxgTGp-1" vertex="1">
                    <mxGeometry x="1060" y="304.5" width="120" height="60" as="geometry"/>
                </mxCell>
                <mxCell id="_aVRL1__8PeE6xzxgTGp-7" value="ts2" style="rounded=0;whiteSpace=wrap;html=1;dashed=1;" parent="_aVRL1__8PeE6xzxgTGp-1" vertex="1">
                    <mxGeometry x="1180" y="304.5" width="120" height="60" as="geometry"/>
                </mxCell>
                <mxCell id="_aVRL1__8PeE6xzxgTGp-8" value="value3(33)" style="rounded=0;whiteSpace=wrap;html=1;dashed=1;" parent="_aVRL1__8PeE6xzxgTGp-1" vertex="1">
                    <mxGeometry x="1318" y="304.5" width="120" height="60" as="geometry"/>
                </mxCell>
                <mxCell id="_aVRL1__8PeE6xzxgTGp-9" value="put" style="rounded=0;whiteSpace=wrap;html=1;dashed=1;" parent="_aVRL1__8PeE6xzxgTGp-1" vertex="1">
                    <mxGeometry x="1438" y="304.5" width="120" height="60" as="geometry"/>
                </mxCell>
                <mxCell id="_aVRL1__8PeE6xzxgTGp-10" value="key3" style="rounded=0;whiteSpace=wrap;html=1;dashed=1;" parent="_aVRL1__8PeE6xzxgTGp-1" vertex="1">
                    <mxGeometry x="1061" y="408.5" width="120" height="60" as="geometry"/>
                </mxCell>
                <mxCell id="_aVRL1__8PeE6xzxgTGp-11" value="ts1" style="rounded=0;whiteSpace=wrap;html=1;dashed=1;" parent="_aVRL1__8PeE6xzxgTGp-1" vertex="1">
                    <mxGeometry x="1181" y="408.5" width="120" height="60" as="geometry"/>
                </mxCell>
                <mxCell id="_aVRL1__8PeE6xzxgTGp-12" value="value3(3)" style="rounded=0;whiteSpace=wrap;html=1;dashed=1;" parent="_aVRL1__8PeE6xzxgTGp-1" vertex="1">
                    <mxGeometry x="1319" y="408.5" width="120" height="60" as="geometry"/>
                </mxCell>
                <mxCell id="_aVRL1__8PeE6xzxgTGp-13" value="put" style="rounded=0;whiteSpace=wrap;html=1;dashed=1;" parent="_aVRL1__8PeE6xzxgTGp-1" vertex="1">
                    <mxGeometry x="1439" y="408.5" width="120" height="60" as="geometry"/>
                </mxCell>
                <mxCell id="_aVRL1__8PeE6xzxgTGp-14" value="key2" style="rounded=0;whiteSpace=wrap;html=1;" parent="_aVRL1__8PeE6xzxgTGp-1" vertex="1">
                    <mxGeometry x="530" y="204" width="120" height="60" as="geometry"/>
                </mxCell>
                <mxCell id="_aVRL1__8PeE6xzxgTGp-15" value="ts3" style="rounded=0;whiteSpace=wrap;html=1;" parent="_aVRL1__8PeE6xzxgTGp-1" vertex="1">
                    <mxGeometry x="650" y="204" width="120" height="60" as="geometry"/>
                </mxCell>
                <mxCell id="_aVRL1__8PeE6xzxgTGp-16" value="value2(222)" style="rounded=0;whiteSpace=wrap;html=1;" parent="_aVRL1__8PeE6xzxgTGp-1" vertex="1">
                    <mxGeometry x="788" y="204" width="120" height="60" as="geometry"/>
                </mxCell>
                <mxCell id="_aVRL1__8PeE6xzxgTGp-17" value="put" style="rounded=0;whiteSpace=wrap;html=1;" parent="_aVRL1__8PeE6xzxgTGp-1" vertex="1">
                    <mxGeometry x="908" y="204" width="120" height="60" as="geometry"/>
                </mxCell>
                <mxCell id="_aVRL1__8PeE6xzxgTGp-18" value="key2" style="rounded=0;whiteSpace=wrap;html=1;dashed=1;" parent="_aVRL1__8PeE6xzxgTGp-1" vertex="1">
                    <mxGeometry x="530" y="305" width="120" height="60" as="geometry"/>
                </mxCell>
                <mxCell id="_aVRL1__8PeE6xzxgTGp-19" value="ts2" style="rounded=0;whiteSpace=wrap;html=1;dashed=1;" parent="_aVRL1__8PeE6xzxgTGp-1" vertex="1">
                    <mxGeometry x="650" y="305" width="120" height="60" as="geometry"/>
                </mxCell>
                <mxCell id="_aVRL1__8PeE6xzxgTGp-20" value="value2(22)" style="rounded=0;whiteSpace=wrap;html=1;dashed=1;" parent="_aVRL1__8PeE6xzxgTGp-1" vertex="1">
                    <mxGeometry x="788" y="305" width="120" height="60" as="geometry"/>
                </mxCell>
                <mxCell id="_aVRL1__8PeE6xzxgTGp-21" value="put" style="rounded=0;whiteSpace=wrap;html=1;dashed=1;" parent="_aVRL1__8PeE6xzxgTGp-1" vertex="1">
                    <mxGeometry x="908" y="305" width="120" height="60" as="geometry"/>
                </mxCell>
                <mxCell id="_aVRL1__8PeE6xzxgTGp-22" value="key2" style="rounded=0;whiteSpace=wrap;html=1;dashed=1;" parent="_aVRL1__8PeE6xzxgTGp-1" vertex="1">
                    <mxGeometry x="531" y="409" width="120" height="60" as="geometry"/>
                </mxCell>
                <mxCell id="_aVRL1__8PeE6xzxgTGp-23" value="ts1" style="rounded=0;whiteSpace=wrap;html=1;dashed=1;" parent="_aVRL1__8PeE6xzxgTGp-1" vertex="1">
                    <mxGeometry x="651" y="409" width="120" height="60" as="geometry"/>
                </mxCell>
                <mxCell id="_aVRL1__8PeE6xzxgTGp-24" value="value2(2)" style="rounded=0;whiteSpace=wrap;html=1;dashed=1;" parent="_aVRL1__8PeE6xzxgTGp-1" vertex="1">
                    <mxGeometry x="789" y="409" width="120" height="60" as="geometry"/>
                </mxCell>
                <mxCell id="_aVRL1__8PeE6xzxgTGp-25" value="put" style="rounded=0;whiteSpace=wrap;html=1;dashed=1;" parent="_aVRL1__8PeE6xzxgTGp-1" vertex="1">
                    <mxGeometry x="909" y="409" width="120" height="60" as="geometry"/>
                </mxCell>
                <mxCell id="_aVRL1__8PeE6xzxgTGp-26" value="key1" style="rounded=0;whiteSpace=wrap;html=1;" parent="_aVRL1__8PeE6xzxgTGp-1" vertex="1">
                    <mxGeometry x="21" y="204" width="120" height="60" as="geometry"/>
                </mxCell>
                <mxCell id="_aVRL1__8PeE6xzxgTGp-27" value="ts3" style="rounded=0;whiteSpace=wrap;html=1;" parent="_aVRL1__8PeE6xzxgTGp-1" vertex="1">
                    <mxGeometry x="141" y="204" width="120" height="60" as="geometry"/>
                </mxCell>
                <mxCell id="_aVRL1__8PeE6xzxgTGp-28" value="value3(111)" style="rounded=0;whiteSpace=wrap;html=1;" parent="_aVRL1__8PeE6xzxgTGp-1" vertex="1">
                    <mxGeometry x="281" y="204" width="120" height="60" as="geometry"/>
                </mxCell>
                <mxCell id="_aVRL1__8PeE6xzxgTGp-29" value="put" style="rounded=0;whiteSpace=wrap;html=1;" parent="_aVRL1__8PeE6xzxgTGp-1" vertex="1">
                    <mxGeometry x="401" y="204" width="120" height="60" as="geometry"/>
                </mxCell>
                <mxCell id="_aVRL1__8PeE6xzxgTGp-30" value="key1" style="rounded=0;whiteSpace=wrap;html=1;dashed=1;" parent="_aVRL1__8PeE6xzxgTGp-1" vertex="1">
                    <mxGeometry x="21" y="305" width="120" height="60" as="geometry"/>
                </mxCell>
                <mxCell id="_aVRL1__8PeE6xzxgTGp-31" value="ts2" style="rounded=0;whiteSpace=wrap;html=1;dashed=1;" parent="_aVRL1__8PeE6xzxgTGp-1" vertex="1">
                    <mxGeometry x="141" y="305" width="120" height="60" as="geometry"/>
                </mxCell>
                <mxCell id="_aVRL1__8PeE6xzxgTGp-32" value="value3(11)" style="rounded=0;whiteSpace=wrap;html=1;dashed=1;" parent="_aVRL1__8PeE6xzxgTGp-1" vertex="1">
                    <mxGeometry x="281" y="305" width="120" height="60" as="geometry"/>
                </mxCell>
                <mxCell id="_aVRL1__8PeE6xzxgTGp-33" value="put" style="rounded=0;whiteSpace=wrap;html=1;dashed=1;" parent="_aVRL1__8PeE6xzxgTGp-1" vertex="1">
                    <mxGeometry x="401" y="305" width="120" height="60" as="geometry"/>
                </mxCell>
                <mxCell id="_aVRL1__8PeE6xzxgTGp-34" value="key1" style="rounded=0;whiteSpace=wrap;html=1;dashed=1;" parent="_aVRL1__8PeE6xzxgTGp-1" vertex="1">
                    <mxGeometry x="22" y="409" width="120" height="60" as="geometry"/>
                </mxCell>
                <mxCell id="_aVRL1__8PeE6xzxgTGp-35" value="ts1" style="rounded=0;whiteSpace=wrap;html=1;dashed=1;" parent="_aVRL1__8PeE6xzxgTGp-1" vertex="1">
                    <mxGeometry x="142" y="409" width="120" height="60" as="geometry"/>
                </mxCell>
                <mxCell id="_aVRL1__8PeE6xzxgTGp-36" value="value3(1)" style="rounded=0;whiteSpace=wrap;html=1;dashed=1;" parent="_aVRL1__8PeE6xzxgTGp-1" vertex="1">
                    <mxGeometry x="282" y="409" width="120" height="60" as="geometry"/>
                </mxCell>
                <mxCell id="_aVRL1__8PeE6xzxgTGp-37" value="put" style="rounded=0;whiteSpace=wrap;html=1;dashed=1;" parent="_aVRL1__8PeE6xzxgTGp-1" vertex="1">
                    <mxGeometry x="402" y="409" width="120" height="60" as="geometry"/>
                </mxCell>
                <mxCell id="_aVRL1__8PeE6xzxgTGp-38" value="" style="endArrow=none;html=1;startArrow=none;" parent="_aVRL1__8PeE6xzxgTGp-1" edge="1">
                    <mxGeometry width="50" height="50" relative="1" as="geometry">
                        <mxPoint x="681" y="284.0326441784548" as="sourcePoint"/>
                        <mxPoint x="1570" y="285" as="targetPoint"/>
                    </mxGeometry>
                </mxCell>
                <mxCell id="_aVRL1__8PeE6xzxgTGp-39" value="" style="endArrow=none;html=1;" parent="_aVRL1__8PeE6xzxgTGp-1" target="_aVRL1__8PeE6xzxgTGp-40" edge="1">
                    <mxGeometry width="50" height="50" relative="1" as="geometry">
                        <mxPoint x="20" y="286" as="sourcePoint"/>
                        <mxPoint x="1570" y="286" as="targetPoint"/>
                    </mxGeometry>
                </mxCell>
                <mxCell id="_aVRL1__8PeE6xzxgTGp-40" value="ts2" style="text;html=1;strokeColor=none;fillColor=none;align=center;verticalAlign=middle;whiteSpace=wrap;rounded=0;" parent="_aVRL1__8PeE6xzxgTGp-1" vertex="1">
                    <mxGeometry x="621" y="270" width="60" height="30" as="geometry"/>
                </mxCell>
            </root>
        </mxGraphModel>
    </diagram>
    <diagram name="gc 删除策略3-错误" id="NQ1NeMTuQHyxEcwjypm7">
        <mxGraphModel dx="1572" dy="1147" grid="1" gridSize="10" guides="1" tooltips="1" connect="1" arrows="1" fold="1" page="1" pageScale="1" pageWidth="1169" pageHeight="827" math="0" shadow="0">
            <root>
                <mxCell id="HdjFEvPVJ2bALgoWomwW-0"/>
                <mxCell id="HdjFEvPVJ2bALgoWomwW-1" parent="HdjFEvPVJ2bALgoWomwW-0"/>
                <mxCell id="HdjFEvPVJ2bALgoWomwW-2" value="key3" style="rounded=0;whiteSpace=wrap;html=1;dashed=1;" parent="HdjFEvPVJ2bALgoWomwW-1" vertex="1">
                    <mxGeometry x="1060" y="202.5" width="120" height="60" as="geometry"/>
                </mxCell>
                <mxCell id="HdjFEvPVJ2bALgoWomwW-3" value="ts3" style="rounded=0;whiteSpace=wrap;html=1;dashed=1;" parent="HdjFEvPVJ2bALgoWomwW-1" vertex="1">
                    <mxGeometry x="1180" y="202.5" width="120" height="60" as="geometry"/>
                </mxCell>
                <mxCell id="HdjFEvPVJ2bALgoWomwW-4" value="value3(333)" style="rounded=0;whiteSpace=wrap;html=1;dashed=1;" parent="HdjFEvPVJ2bALgoWomwW-1" vertex="1">
                    <mxGeometry x="1318" y="202.5" width="120" height="60" as="geometry"/>
                </mxCell>
                <mxCell id="HdjFEvPVJ2bALgoWomwW-5" value="put" style="rounded=0;whiteSpace=wrap;html=1;dashed=1;" parent="HdjFEvPVJ2bALgoWomwW-1" vertex="1">
                    <mxGeometry x="1438" y="202.5" width="120" height="60" as="geometry"/>
                </mxCell>
                <mxCell id="HdjFEvPVJ2bALgoWomwW-6" value="key3" style="rounded=0;whiteSpace=wrap;html=1;dashed=1;" parent="HdjFEvPVJ2bALgoWomwW-1" vertex="1">
                    <mxGeometry x="1060" y="304.5" width="120" height="60" as="geometry"/>
                </mxCell>
                <mxCell id="HdjFEvPVJ2bALgoWomwW-7" value="ts2" style="rounded=0;whiteSpace=wrap;html=1;dashed=1;" parent="HdjFEvPVJ2bALgoWomwW-1" vertex="1">
                    <mxGeometry x="1180" y="304.5" width="120" height="60" as="geometry"/>
                </mxCell>
                <mxCell id="HdjFEvPVJ2bALgoWomwW-8" value="value3(33)" style="rounded=0;whiteSpace=wrap;html=1;dashed=1;" parent="HdjFEvPVJ2bALgoWomwW-1" vertex="1">
                    <mxGeometry x="1318" y="304.5" width="120" height="60" as="geometry"/>
                </mxCell>
                <mxCell id="HdjFEvPVJ2bALgoWomwW-9" value="put" style="rounded=0;whiteSpace=wrap;html=1;dashed=1;" parent="HdjFEvPVJ2bALgoWomwW-1" vertex="1">
                    <mxGeometry x="1438" y="304.5" width="120" height="60" as="geometry"/>
                </mxCell>
                <mxCell id="HdjFEvPVJ2bALgoWomwW-10" value="key3" style="rounded=0;whiteSpace=wrap;html=1;dashed=1;" parent="HdjFEvPVJ2bALgoWomwW-1" vertex="1">
                    <mxGeometry x="1061" y="408.5" width="120" height="60" as="geometry"/>
                </mxCell>
                <mxCell id="HdjFEvPVJ2bALgoWomwW-11" value="ts1" style="rounded=0;whiteSpace=wrap;html=1;dashed=1;" parent="HdjFEvPVJ2bALgoWomwW-1" vertex="1">
                    <mxGeometry x="1181" y="408.5" width="120" height="60" as="geometry"/>
                </mxCell>
                <mxCell id="HdjFEvPVJ2bALgoWomwW-12" value="value3(3)" style="rounded=0;whiteSpace=wrap;html=1;dashed=1;" parent="HdjFEvPVJ2bALgoWomwW-1" vertex="1">
                    <mxGeometry x="1319" y="408.5" width="120" height="60" as="geometry"/>
                </mxCell>
                <mxCell id="HdjFEvPVJ2bALgoWomwW-13" value="put" style="rounded=0;whiteSpace=wrap;html=1;dashed=1;" parent="HdjFEvPVJ2bALgoWomwW-1" vertex="1">
                    <mxGeometry x="1439" y="408.5" width="120" height="60" as="geometry"/>
                </mxCell>
                <mxCell id="HdjFEvPVJ2bALgoWomwW-14" value="key2" style="rounded=0;whiteSpace=wrap;html=1;dashed=1;" parent="HdjFEvPVJ2bALgoWomwW-1" vertex="1">
                    <mxGeometry x="530" y="204" width="120" height="60" as="geometry"/>
                </mxCell>
                <mxCell id="HdjFEvPVJ2bALgoWomwW-15" value="ts3" style="rounded=0;whiteSpace=wrap;html=1;dashed=1;" parent="HdjFEvPVJ2bALgoWomwW-1" vertex="1">
                    <mxGeometry x="650" y="204" width="120" height="60" as="geometry"/>
                </mxCell>
                <mxCell id="HdjFEvPVJ2bALgoWomwW-16" value="value2(222)" style="rounded=0;whiteSpace=wrap;html=1;dashed=1;" parent="HdjFEvPVJ2bALgoWomwW-1" vertex="1">
                    <mxGeometry x="788" y="204" width="120" height="60" as="geometry"/>
                </mxCell>
                <mxCell id="HdjFEvPVJ2bALgoWomwW-17" value="put" style="rounded=0;whiteSpace=wrap;html=1;dashed=1;" parent="HdjFEvPVJ2bALgoWomwW-1" vertex="1">
                    <mxGeometry x="908" y="204" width="120" height="60" as="geometry"/>
                </mxCell>
                <mxCell id="HdjFEvPVJ2bALgoWomwW-18" value="key2" style="rounded=0;whiteSpace=wrap;html=1;dashed=1;" parent="HdjFEvPVJ2bALgoWomwW-1" vertex="1">
                    <mxGeometry x="530" y="305" width="120" height="60" as="geometry"/>
                </mxCell>
                <mxCell id="HdjFEvPVJ2bALgoWomwW-19" value="ts2" style="rounded=0;whiteSpace=wrap;html=1;dashed=1;" parent="HdjFEvPVJ2bALgoWomwW-1" vertex="1">
                    <mxGeometry x="650" y="305" width="120" height="60" as="geometry"/>
                </mxCell>
                <mxCell id="HdjFEvPVJ2bALgoWomwW-20" value="value2(22)" style="rounded=0;whiteSpace=wrap;html=1;dashed=1;" parent="HdjFEvPVJ2bALgoWomwW-1" vertex="1">
                    <mxGeometry x="788" y="305" width="120" height="60" as="geometry"/>
                </mxCell>
                <mxCell id="HdjFEvPVJ2bALgoWomwW-21" value="put" style="rounded=0;whiteSpace=wrap;html=1;dashed=1;" parent="HdjFEvPVJ2bALgoWomwW-1" vertex="1">
                    <mxGeometry x="908" y="305" width="120" height="60" as="geometry"/>
                </mxCell>
                <mxCell id="HdjFEvPVJ2bALgoWomwW-22" value="key2" style="rounded=0;whiteSpace=wrap;html=1;dashed=1;" parent="HdjFEvPVJ2bALgoWomwW-1" vertex="1">
                    <mxGeometry x="531" y="409" width="120" height="60" as="geometry"/>
                </mxCell>
                <mxCell id="HdjFEvPVJ2bALgoWomwW-23" value="ts1" style="rounded=0;whiteSpace=wrap;html=1;dashed=1;" parent="HdjFEvPVJ2bALgoWomwW-1" vertex="1">
                    <mxGeometry x="651" y="409" width="120" height="60" as="geometry"/>
                </mxCell>
                <mxCell id="HdjFEvPVJ2bALgoWomwW-24" value="value2(2)" style="rounded=0;whiteSpace=wrap;html=1;dashed=1;" parent="HdjFEvPVJ2bALgoWomwW-1" vertex="1">
                    <mxGeometry x="789" y="409" width="120" height="60" as="geometry"/>
                </mxCell>
                <mxCell id="HdjFEvPVJ2bALgoWomwW-25" value="put" style="rounded=0;whiteSpace=wrap;html=1;dashed=1;" parent="HdjFEvPVJ2bALgoWomwW-1" vertex="1">
                    <mxGeometry x="909" y="409" width="120" height="60" as="geometry"/>
                </mxCell>
                <mxCell id="HdjFEvPVJ2bALgoWomwW-26" value="key1" style="rounded=0;whiteSpace=wrap;html=1;dashed=1;" parent="HdjFEvPVJ2bALgoWomwW-1" vertex="1">
                    <mxGeometry x="21" y="204" width="120" height="60" as="geometry"/>
                </mxCell>
                <mxCell id="HdjFEvPVJ2bALgoWomwW-27" value="ts3" style="rounded=0;whiteSpace=wrap;html=1;dashed=1;" parent="HdjFEvPVJ2bALgoWomwW-1" vertex="1">
                    <mxGeometry x="141" y="204" width="120" height="60" as="geometry"/>
                </mxCell>
                <mxCell id="HdjFEvPVJ2bALgoWomwW-28" value="value3(111)" style="rounded=0;whiteSpace=wrap;html=1;dashed=1;" parent="HdjFEvPVJ2bALgoWomwW-1" vertex="1">
                    <mxGeometry x="281" y="204" width="120" height="60" as="geometry"/>
                </mxCell>
                <mxCell id="HdjFEvPVJ2bALgoWomwW-29" value="put" style="rounded=0;whiteSpace=wrap;html=1;dashed=1;" parent="HdjFEvPVJ2bALgoWomwW-1" vertex="1">
                    <mxGeometry x="401" y="204" width="120" height="60" as="geometry"/>
                </mxCell>
                <mxCell id="HdjFEvPVJ2bALgoWomwW-30" value="key1" style="rounded=0;whiteSpace=wrap;html=1;dashed=1;" parent="HdjFEvPVJ2bALgoWomwW-1" vertex="1">
                    <mxGeometry x="21" y="305" width="120" height="60" as="geometry"/>
                </mxCell>
                <mxCell id="HdjFEvPVJ2bALgoWomwW-31" value="ts2" style="rounded=0;whiteSpace=wrap;html=1;dashed=1;" parent="HdjFEvPVJ2bALgoWomwW-1" vertex="1">
                    <mxGeometry x="141" y="305" width="120" height="60" as="geometry"/>
                </mxCell>
                <mxCell id="HdjFEvPVJ2bALgoWomwW-32" value="value3(11)" style="rounded=0;whiteSpace=wrap;html=1;dashed=1;" parent="HdjFEvPVJ2bALgoWomwW-1" vertex="1">
                    <mxGeometry x="281" y="305" width="120" height="60" as="geometry"/>
                </mxCell>
                <mxCell id="HdjFEvPVJ2bALgoWomwW-33" value="put" style="rounded=0;whiteSpace=wrap;html=1;dashed=1;" parent="HdjFEvPVJ2bALgoWomwW-1" vertex="1">
                    <mxGeometry x="401" y="305" width="120" height="60" as="geometry"/>
                </mxCell>
                <mxCell id="HdjFEvPVJ2bALgoWomwW-34" value="key1" style="rounded=0;whiteSpace=wrap;html=1;dashed=1;" parent="HdjFEvPVJ2bALgoWomwW-1" vertex="1">
                    <mxGeometry x="22" y="409" width="120" height="60" as="geometry"/>
                </mxCell>
                <mxCell id="HdjFEvPVJ2bALgoWomwW-35" value="ts1" style="rounded=0;whiteSpace=wrap;html=1;dashed=1;" parent="HdjFEvPVJ2bALgoWomwW-1" vertex="1">
                    <mxGeometry x="142" y="409" width="120" height="60" as="geometry"/>
                </mxCell>
                <mxCell id="HdjFEvPVJ2bALgoWomwW-36" value="value3(1)" style="rounded=0;whiteSpace=wrap;html=1;dashed=1;" parent="HdjFEvPVJ2bALgoWomwW-1" vertex="1">
                    <mxGeometry x="282" y="409" width="120" height="60" as="geometry"/>
                </mxCell>
                <mxCell id="HdjFEvPVJ2bALgoWomwW-37" value="put" style="rounded=0;whiteSpace=wrap;html=1;dashed=1;" parent="HdjFEvPVJ2bALgoWomwW-1" vertex="1">
                    <mxGeometry x="402" y="409" width="120" height="60" as="geometry"/>
                </mxCell>
                <mxCell id="HdjFEvPVJ2bALgoWomwW-38" value="" style="endArrow=none;html=1;startArrow=none;" parent="HdjFEvPVJ2bALgoWomwW-1" edge="1">
                    <mxGeometry width="50" height="50" relative="1" as="geometry">
                        <mxPoint x="681" y="167.0326441784548" as="sourcePoint"/>
                        <mxPoint x="1570" y="168" as="targetPoint"/>
                    </mxGeometry>
                </mxCell>
                <mxCell id="HdjFEvPVJ2bALgoWomwW-39" value="" style="endArrow=none;html=1;" parent="HdjFEvPVJ2bALgoWomwW-1" target="HdjFEvPVJ2bALgoWomwW-40" edge="1">
                    <mxGeometry width="50" height="50" relative="1" as="geometry">
                        <mxPoint x="20" y="169" as="sourcePoint"/>
                        <mxPoint x="1570" y="169" as="targetPoint"/>
                    </mxGeometry>
                </mxCell>
                <mxCell id="HdjFEvPVJ2bALgoWomwW-40" value="ts3" style="text;html=1;strokeColor=none;fillColor=none;align=center;verticalAlign=middle;whiteSpace=wrap;rounded=0;" parent="HdjFEvPVJ2bALgoWomwW-1" vertex="1">
                    <mxGeometry x="621" y="153" width="60" height="30" as="geometry"/>
                </mxCell>
            </root>
        </mxGraphModel>
    </diagram>
    <diagram name="gc 删除策略3" id="uTlj2eB4IzyYswhL1DQk">
        <mxGraphModel dx="1572" dy="1147" grid="1" gridSize="10" guides="1" tooltips="1" connect="1" arrows="1" fold="1" page="1" pageScale="1" pageWidth="1169" pageHeight="827" math="0" shadow="0">
            <root>
                <mxCell id="H8Gk3IfRcl_7j44jxrnv-0"/>
                <mxCell id="H8Gk3IfRcl_7j44jxrnv-1" parent="H8Gk3IfRcl_7j44jxrnv-0"/>
                <mxCell id="H8Gk3IfRcl_7j44jxrnv-2" value="key3" style="rounded=0;whiteSpace=wrap;html=1;" parent="H8Gk3IfRcl_7j44jxrnv-1" vertex="1">
                    <mxGeometry x="1060" y="202.5" width="120" height="60" as="geometry"/>
                </mxCell>
                <mxCell id="H8Gk3IfRcl_7j44jxrnv-3" value="ts3" style="rounded=0;whiteSpace=wrap;html=1;" parent="H8Gk3IfRcl_7j44jxrnv-1" vertex="1">
                    <mxGeometry x="1180" y="202.5" width="120" height="60" as="geometry"/>
                </mxCell>
                <mxCell id="H8Gk3IfRcl_7j44jxrnv-4" value="value3(333)" style="rounded=0;whiteSpace=wrap;html=1;" parent="H8Gk3IfRcl_7j44jxrnv-1" vertex="1">
                    <mxGeometry x="1318" y="202.5" width="120" height="60" as="geometry"/>
                </mxCell>
                <mxCell id="H8Gk3IfRcl_7j44jxrnv-5" value="put" style="rounded=0;whiteSpace=wrap;html=1;" parent="H8Gk3IfRcl_7j44jxrnv-1" vertex="1">
                    <mxGeometry x="1438" y="202.5" width="120" height="60" as="geometry"/>
                </mxCell>
                <mxCell id="H8Gk3IfRcl_7j44jxrnv-6" value="key3" style="rounded=0;whiteSpace=wrap;html=1;dashed=1;" parent="H8Gk3IfRcl_7j44jxrnv-1" vertex="1">
                    <mxGeometry x="1060" y="304.5" width="120" height="60" as="geometry"/>
                </mxCell>
                <mxCell id="H8Gk3IfRcl_7j44jxrnv-7" value="ts2" style="rounded=0;whiteSpace=wrap;html=1;dashed=1;" parent="H8Gk3IfRcl_7j44jxrnv-1" vertex="1">
                    <mxGeometry x="1180" y="304.5" width="120" height="60" as="geometry"/>
                </mxCell>
                <mxCell id="H8Gk3IfRcl_7j44jxrnv-8" value="value3(33)" style="rounded=0;whiteSpace=wrap;html=1;dashed=1;" parent="H8Gk3IfRcl_7j44jxrnv-1" vertex="1">
                    <mxGeometry x="1318" y="304.5" width="120" height="60" as="geometry"/>
                </mxCell>
                <mxCell id="H8Gk3IfRcl_7j44jxrnv-9" value="put" style="rounded=0;whiteSpace=wrap;html=1;dashed=1;" parent="H8Gk3IfRcl_7j44jxrnv-1" vertex="1">
                    <mxGeometry x="1438" y="304.5" width="120" height="60" as="geometry"/>
                </mxCell>
                <mxCell id="H8Gk3IfRcl_7j44jxrnv-10" value="key3" style="rounded=0;whiteSpace=wrap;html=1;dashed=1;" parent="H8Gk3IfRcl_7j44jxrnv-1" vertex="1">
                    <mxGeometry x="1061" y="408.5" width="120" height="60" as="geometry"/>
                </mxCell>
                <mxCell id="H8Gk3IfRcl_7j44jxrnv-11" value="ts1" style="rounded=0;whiteSpace=wrap;html=1;dashed=1;" parent="H8Gk3IfRcl_7j44jxrnv-1" vertex="1">
                    <mxGeometry x="1181" y="408.5" width="120" height="60" as="geometry"/>
                </mxCell>
                <mxCell id="H8Gk3IfRcl_7j44jxrnv-12" value="value3(3)" style="rounded=0;whiteSpace=wrap;html=1;dashed=1;" parent="H8Gk3IfRcl_7j44jxrnv-1" vertex="1">
                    <mxGeometry x="1319" y="408.5" width="120" height="60" as="geometry"/>
                </mxCell>
                <mxCell id="H8Gk3IfRcl_7j44jxrnv-13" value="put" style="rounded=0;whiteSpace=wrap;html=1;dashed=1;" parent="H8Gk3IfRcl_7j44jxrnv-1" vertex="1">
                    <mxGeometry x="1439" y="408.5" width="120" height="60" as="geometry"/>
                </mxCell>
                <mxCell id="H8Gk3IfRcl_7j44jxrnv-14" value="key2" style="rounded=0;whiteSpace=wrap;html=1;" parent="H8Gk3IfRcl_7j44jxrnv-1" vertex="1">
                    <mxGeometry x="530" y="204" width="120" height="60" as="geometry"/>
                </mxCell>
                <mxCell id="H8Gk3IfRcl_7j44jxrnv-15" value="ts3" style="rounded=0;whiteSpace=wrap;html=1;" parent="H8Gk3IfRcl_7j44jxrnv-1" vertex="1">
                    <mxGeometry x="650" y="204" width="120" height="60" as="geometry"/>
                </mxCell>
                <mxCell id="H8Gk3IfRcl_7j44jxrnv-16" value="value2(222)" style="rounded=0;whiteSpace=wrap;html=1;" parent="H8Gk3IfRcl_7j44jxrnv-1" vertex="1">
                    <mxGeometry x="788" y="204" width="120" height="60" as="geometry"/>
                </mxCell>
                <mxCell id="H8Gk3IfRcl_7j44jxrnv-17" value="put" style="rounded=0;whiteSpace=wrap;html=1;" parent="H8Gk3IfRcl_7j44jxrnv-1" vertex="1">
                    <mxGeometry x="908" y="204" width="120" height="60" as="geometry"/>
                </mxCell>
                <mxCell id="H8Gk3IfRcl_7j44jxrnv-18" value="key2" style="rounded=0;whiteSpace=wrap;html=1;dashed=1;" parent="H8Gk3IfRcl_7j44jxrnv-1" vertex="1">
                    <mxGeometry x="530" y="305" width="120" height="60" as="geometry"/>
                </mxCell>
                <mxCell id="H8Gk3IfRcl_7j44jxrnv-19" value="ts2" style="rounded=0;whiteSpace=wrap;html=1;dashed=1;" parent="H8Gk3IfRcl_7j44jxrnv-1" vertex="1">
                    <mxGeometry x="650" y="305" width="120" height="60" as="geometry"/>
                </mxCell>
                <mxCell id="H8Gk3IfRcl_7j44jxrnv-20" value="value2(22)" style="rounded=0;whiteSpace=wrap;html=1;dashed=1;" parent="H8Gk3IfRcl_7j44jxrnv-1" vertex="1">
                    <mxGeometry x="788" y="305" width="120" height="60" as="geometry"/>
                </mxCell>
                <mxCell id="H8Gk3IfRcl_7j44jxrnv-21" value="put" style="rounded=0;whiteSpace=wrap;html=1;dashed=1;" parent="H8Gk3IfRcl_7j44jxrnv-1" vertex="1">
                    <mxGeometry x="908" y="305" width="120" height="60" as="geometry"/>
                </mxCell>
                <mxCell id="H8Gk3IfRcl_7j44jxrnv-22" value="key2" style="rounded=0;whiteSpace=wrap;html=1;dashed=1;" parent="H8Gk3IfRcl_7j44jxrnv-1" vertex="1">
                    <mxGeometry x="531" y="409" width="120" height="60" as="geometry"/>
                </mxCell>
                <mxCell id="H8Gk3IfRcl_7j44jxrnv-23" value="ts1" style="rounded=0;whiteSpace=wrap;html=1;dashed=1;" parent="H8Gk3IfRcl_7j44jxrnv-1" vertex="1">
                    <mxGeometry x="651" y="409" width="120" height="60" as="geometry"/>
                </mxCell>
                <mxCell id="H8Gk3IfRcl_7j44jxrnv-24" value="value2(2)" style="rounded=0;whiteSpace=wrap;html=1;dashed=1;" parent="H8Gk3IfRcl_7j44jxrnv-1" vertex="1">
                    <mxGeometry x="789" y="409" width="120" height="60" as="geometry"/>
                </mxCell>
                <mxCell id="H8Gk3IfRcl_7j44jxrnv-25" value="put" style="rounded=0;whiteSpace=wrap;html=1;dashed=1;" parent="H8Gk3IfRcl_7j44jxrnv-1" vertex="1">
                    <mxGeometry x="909" y="409" width="120" height="60" as="geometry"/>
                </mxCell>
                <mxCell id="H8Gk3IfRcl_7j44jxrnv-26" value="key1" style="rounded=0;whiteSpace=wrap;html=1;" parent="H8Gk3IfRcl_7j44jxrnv-1" vertex="1">
                    <mxGeometry x="21" y="204" width="120" height="60" as="geometry"/>
                </mxCell>
                <mxCell id="H8Gk3IfRcl_7j44jxrnv-27" value="ts3" style="rounded=0;whiteSpace=wrap;html=1;" parent="H8Gk3IfRcl_7j44jxrnv-1" vertex="1">
                    <mxGeometry x="141" y="204" width="120" height="60" as="geometry"/>
                </mxCell>
                <mxCell id="H8Gk3IfRcl_7j44jxrnv-28" value="value3(111)" style="rounded=0;whiteSpace=wrap;html=1;" parent="H8Gk3IfRcl_7j44jxrnv-1" vertex="1">
                    <mxGeometry x="281" y="204" width="120" height="60" as="geometry"/>
                </mxCell>
                <mxCell id="H8Gk3IfRcl_7j44jxrnv-29" value="put" style="rounded=0;whiteSpace=wrap;html=1;" parent="H8Gk3IfRcl_7j44jxrnv-1" vertex="1">
                    <mxGeometry x="401" y="204" width="120" height="60" as="geometry"/>
                </mxCell>
                <mxCell id="H8Gk3IfRcl_7j44jxrnv-30" value="key1" style="rounded=0;whiteSpace=wrap;html=1;dashed=1;" parent="H8Gk3IfRcl_7j44jxrnv-1" vertex="1">
                    <mxGeometry x="21" y="305" width="120" height="60" as="geometry"/>
                </mxCell>
                <mxCell id="H8Gk3IfRcl_7j44jxrnv-31" value="ts2" style="rounded=0;whiteSpace=wrap;html=1;dashed=1;" parent="H8Gk3IfRcl_7j44jxrnv-1" vertex="1">
                    <mxGeometry x="141" y="305" width="120" height="60" as="geometry"/>
                </mxCell>
                <mxCell id="H8Gk3IfRcl_7j44jxrnv-32" value="value3(11)" style="rounded=0;whiteSpace=wrap;html=1;dashed=1;" parent="H8Gk3IfRcl_7j44jxrnv-1" vertex="1">
                    <mxGeometry x="281" y="305" width="120" height="60" as="geometry"/>
                </mxCell>
                <mxCell id="H8Gk3IfRcl_7j44jxrnv-33" value="put" style="rounded=0;whiteSpace=wrap;html=1;dashed=1;" parent="H8Gk3IfRcl_7j44jxrnv-1" vertex="1">
                    <mxGeometry x="401" y="305" width="120" height="60" as="geometry"/>
                </mxCell>
                <mxCell id="H8Gk3IfRcl_7j44jxrnv-34" value="key1" style="rounded=0;whiteSpace=wrap;html=1;dashed=1;" parent="H8Gk3IfRcl_7j44jxrnv-1" vertex="1">
                    <mxGeometry x="22" y="409" width="120" height="60" as="geometry"/>
                </mxCell>
                <mxCell id="H8Gk3IfRcl_7j44jxrnv-35" value="ts1" style="rounded=0;whiteSpace=wrap;html=1;dashed=1;" parent="H8Gk3IfRcl_7j44jxrnv-1" vertex="1">
                    <mxGeometry x="142" y="409" width="120" height="60" as="geometry"/>
                </mxCell>
                <mxCell id="H8Gk3IfRcl_7j44jxrnv-36" value="value3(1)" style="rounded=0;whiteSpace=wrap;html=1;dashed=1;" parent="H8Gk3IfRcl_7j44jxrnv-1" vertex="1">
                    <mxGeometry x="282" y="409" width="120" height="60" as="geometry"/>
                </mxCell>
                <mxCell id="H8Gk3IfRcl_7j44jxrnv-37" value="put" style="rounded=0;whiteSpace=wrap;html=1;dashed=1;" parent="H8Gk3IfRcl_7j44jxrnv-1" vertex="1">
                    <mxGeometry x="402" y="409" width="120" height="60" as="geometry"/>
                </mxCell>
                <mxCell id="H8Gk3IfRcl_7j44jxrnv-38" value="" style="endArrow=none;html=1;startArrow=none;" parent="H8Gk3IfRcl_7j44jxrnv-1" edge="1">
                    <mxGeometry width="50" height="50" relative="1" as="geometry">
                        <mxPoint x="681" y="167.0326441784548" as="sourcePoint"/>
                        <mxPoint x="1570" y="168" as="targetPoint"/>
                    </mxGeometry>
                </mxCell>
                <mxCell id="H8Gk3IfRcl_7j44jxrnv-39" value="" style="endArrow=none;html=1;" parent="H8Gk3IfRcl_7j44jxrnv-1" target="H8Gk3IfRcl_7j44jxrnv-40" edge="1">
                    <mxGeometry width="50" height="50" relative="1" as="geometry">
                        <mxPoint x="20" y="169" as="sourcePoint"/>
                        <mxPoint x="1570" y="169" as="targetPoint"/>
                    </mxGeometry>
                </mxCell>
                <mxCell id="H8Gk3IfRcl_7j44jxrnv-40" value="ts3" style="text;html=1;strokeColor=none;fillColor=none;align=center;verticalAlign=middle;whiteSpace=wrap;rounded=0;" parent="H8Gk3IfRcl_7j44jxrnv-1" vertex="1">
                    <mxGeometry x="621" y="153" width="60" height="30" as="geometry"/>
                </mxCell>
            </root>
        </mxGraphModel>
    </diagram>
    <diagram name="删除数据" id="0FBmrKjCcs2LrlFZx7ZF">
        <mxGraphModel dx="1572" dy="1147" grid="1" gridSize="10" guides="1" tooltips="1" connect="1" arrows="1" fold="1" page="1" pageScale="1" pageWidth="1169" pageHeight="827" math="0" shadow="0">
            <root>
                <mxCell id="NZt1Lb_v4ALtRXbboDrd-0"/>
                <mxCell id="NZt1Lb_v4ALtRXbboDrd-1" parent="NZt1Lb_v4ALtRXbboDrd-0"/>
                <mxCell id="NZt1Lb_v4ALtRXbboDrd-2" value="" style="rounded=0;whiteSpace=wrap;html=1;" parent="NZt1Lb_v4ALtRXbboDrd-1" vertex="1">
                    <mxGeometry x="70" y="391.5" width="990" height="95" as="geometry"/>
                </mxCell>
                <mxCell id="NZt1Lb_v4ALtRXbboDrd-3" value="" style="rounded=0;whiteSpace=wrap;html=1;" parent="NZt1Lb_v4ALtRXbboDrd-1" vertex="1">
                    <mxGeometry x="70" y="252.5" width="990" height="95" as="geometry"/>
                </mxCell>
                <mxCell id="NZt1Lb_v4ALtRXbboDrd-4" value="" style="rounded=0;whiteSpace=wrap;html=1;" parent="NZt1Lb_v4ALtRXbboDrd-1" vertex="1">
                    <mxGeometry x="70" y="115" width="990" height="95" as="geometry"/>
                </mxCell>
                <mxCell id="NZt1Lb_v4ALtRXbboDrd-5" value="key3" style="rounded=0;whiteSpace=wrap;html=1;" parent="NZt1Lb_v4ALtRXbboDrd-1" vertex="1">
                    <mxGeometry x="780" y="130" width="120" height="60" as="geometry"/>
                </mxCell>
                <mxCell id="NZt1Lb_v4ALtRXbboDrd-6" value="value3(3)" style="rounded=0;whiteSpace=wrap;html=1;" parent="NZt1Lb_v4ALtRXbboDrd-1" vertex="1">
                    <mxGeometry x="900" y="130" width="120" height="60" as="geometry"/>
                </mxCell>
                <mxCell id="NZt1Lb_v4ALtRXbboDrd-7" value="key3" style="rounded=0;whiteSpace=wrap;html=1;" parent="NZt1Lb_v4ALtRXbboDrd-1" vertex="1">
                    <mxGeometry x="790" y="409" width="120" height="60" as="geometry"/>
                </mxCell>
                <mxCell id="NZt1Lb_v4ALtRXbboDrd-8" value="value3(333)" style="rounded=0;whiteSpace=wrap;html=1;" parent="NZt1Lb_v4ALtRXbboDrd-1" vertex="1">
                    <mxGeometry x="910" y="409" width="120" height="60" as="geometry"/>
                </mxCell>
                <mxCell id="NZt1Lb_v4ALtRXbboDrd-9" value="key3" style="rounded=0;whiteSpace=wrap;html=1;" parent="NZt1Lb_v4ALtRXbboDrd-1" vertex="1">
                    <mxGeometry x="780" y="270" width="120" height="60" as="geometry"/>
                </mxCell>
                <mxCell id="NZt1Lb_v4ALtRXbboDrd-10" value="value3(33)" style="rounded=0;whiteSpace=wrap;html=1;" parent="NZt1Lb_v4ALtRXbboDrd-1" vertex="1">
                    <mxGeometry x="900" y="270" width="120" height="60" as="geometry"/>
                </mxCell>
                <mxCell id="NZt1Lb_v4ALtRXbboDrd-11" value="key2" style="rounded=0;whiteSpace=wrap;html=1;" parent="NZt1Lb_v4ALtRXbboDrd-1" vertex="1">
                    <mxGeometry x="520" y="409" width="120" height="60" as="geometry"/>
                </mxCell>
                <mxCell id="NZt1Lb_v4ALtRXbboDrd-12" value="value2(222)" style="rounded=0;whiteSpace=wrap;html=1;" parent="NZt1Lb_v4ALtRXbboDrd-1" vertex="1">
                    <mxGeometry x="640" y="409" width="120" height="60" as="geometry"/>
                </mxCell>
                <mxCell id="NZt1Lb_v4ALtRXbboDrd-13" value="key2" style="rounded=0;whiteSpace=wrap;html=1;" parent="NZt1Lb_v4ALtRXbboDrd-1" vertex="1">
                    <mxGeometry x="510" y="270" width="120" height="60" as="geometry"/>
                </mxCell>
                <mxCell id="NZt1Lb_v4ALtRXbboDrd-14" value="value2(22)" style="rounded=0;whiteSpace=wrap;html=1;" parent="NZt1Lb_v4ALtRXbboDrd-1" vertex="1">
                    <mxGeometry x="630" y="270" width="120" height="60" as="geometry"/>
                </mxCell>
                <mxCell id="NZt1Lb_v4ALtRXbboDrd-15" value="key2" style="rounded=0;whiteSpace=wrap;html=1;" parent="NZt1Lb_v4ALtRXbboDrd-1" vertex="1">
                    <mxGeometry x="510" y="130" width="120" height="60" as="geometry"/>
                </mxCell>
                <mxCell id="NZt1Lb_v4ALtRXbboDrd-16" value="value2(2)" style="rounded=0;whiteSpace=wrap;html=1;" parent="NZt1Lb_v4ALtRXbboDrd-1" vertex="1">
                    <mxGeometry x="630" y="130" width="120" height="60" as="geometry"/>
                </mxCell>
                <mxCell id="NZt1Lb_v4ALtRXbboDrd-17" value="key1" style="rounded=0;whiteSpace=wrap;html=1;" parent="NZt1Lb_v4ALtRXbboDrd-1" vertex="1">
                    <mxGeometry x="230" y="130" width="120" height="60" as="geometry"/>
                </mxCell>
                <mxCell id="NZt1Lb_v4ALtRXbboDrd-18" value="value1(1)" style="rounded=0;whiteSpace=wrap;html=1;" parent="NZt1Lb_v4ALtRXbboDrd-1" vertex="1">
                    <mxGeometry x="350" y="130" width="120" height="60" as="geometry"/>
                </mxCell>
                <mxCell id="NZt1Lb_v4ALtRXbboDrd-19" value="key1" style="rounded=0;whiteSpace=wrap;html=1;" parent="NZt1Lb_v4ALtRXbboDrd-1" vertex="1">
                    <mxGeometry x="233" y="409" width="120" height="60" as="geometry"/>
                </mxCell>
                <mxCell id="NZt1Lb_v4ALtRXbboDrd-20" value="value1(111)" style="rounded=0;whiteSpace=wrap;html=1;" parent="NZt1Lb_v4ALtRXbboDrd-1" vertex="1">
                    <mxGeometry x="353" y="409" width="120" height="60" as="geometry"/>
                </mxCell>
                <mxCell id="NZt1Lb_v4ALtRXbboDrd-21" value="key1" style="rounded=0;whiteSpace=wrap;html=1;" parent="NZt1Lb_v4ALtRXbboDrd-1" vertex="1">
                    <mxGeometry x="231" y="270" width="120" height="60" as="geometry"/>
                </mxCell>
                <mxCell id="NZt1Lb_v4ALtRXbboDrd-22" value="value1(11)" style="rounded=0;whiteSpace=wrap;html=1;" parent="NZt1Lb_v4ALtRXbboDrd-1" vertex="1">
                    <mxGeometry x="351" y="270" width="120" height="60" as="geometry"/>
                </mxCell>
                <mxCell id="NZt1Lb_v4ALtRXbboDrd-23" value="ADD" style="text;html=1;strokeColor=none;fillColor=none;align=center;verticalAlign=middle;whiteSpace=wrap;rounded=0;" parent="NZt1Lb_v4ALtRXbboDrd-1" vertex="1">
                    <mxGeometry x="130" y="145" width="60" height="30" as="geometry"/>
                </mxCell>
                <mxCell id="NZt1Lb_v4ALtRXbboDrd-24" value="ADD" style="text;html=1;strokeColor=none;fillColor=none;align=center;verticalAlign=middle;whiteSpace=wrap;rounded=0;" parent="NZt1Lb_v4ALtRXbboDrd-1" vertex="1">
                    <mxGeometry x="125" y="285" width="60" height="30" as="geometry"/>
                </mxCell>
                <mxCell id="NZt1Lb_v4ALtRXbboDrd-25" value="ADD" style="text;html=1;strokeColor=none;fillColor=none;align=center;verticalAlign=middle;whiteSpace=wrap;rounded=0;" parent="NZt1Lb_v4ALtRXbboDrd-1" vertex="1">
                    <mxGeometry x="730" y="1150" width="60" height="30" as="geometry"/>
                </mxCell>
                <mxCell id="NZt1Lb_v4ALtRXbboDrd-26" value="ADD" style="text;html=1;strokeColor=none;fillColor=none;align=center;verticalAlign=middle;whiteSpace=wrap;rounded=0;" parent="NZt1Lb_v4ALtRXbboDrd-1" vertex="1">
                    <mxGeometry x="125" y="424" width="60" height="30" as="geometry"/>
                </mxCell>
                <mxCell id="NZt1Lb_v4ALtRXbboDrd-27" value="ts1" style="text;html=1;strokeColor=none;fillColor=none;align=center;verticalAlign=middle;whiteSpace=wrap;rounded=0;" parent="NZt1Lb_v4ALtRXbboDrd-1" vertex="1">
                    <mxGeometry x="70" y="145" width="60" height="30" as="geometry"/>
                </mxCell>
                <mxCell id="NZt1Lb_v4ALtRXbboDrd-28" value="ts2" style="text;html=1;strokeColor=none;fillColor=none;align=center;verticalAlign=middle;whiteSpace=wrap;rounded=0;" parent="NZt1Lb_v4ALtRXbboDrd-1" vertex="1">
                    <mxGeometry x="70" y="285" width="60" height="30" as="geometry"/>
                </mxCell>
                <mxCell id="NZt1Lb_v4ALtRXbboDrd-29" value="ts3" style="text;html=1;strokeColor=none;fillColor=none;align=center;verticalAlign=middle;whiteSpace=wrap;rounded=0;" parent="NZt1Lb_v4ALtRXbboDrd-1" vertex="1">
                    <mxGeometry x="70" y="424" width="60" height="30" as="geometry"/>
                </mxCell>
                <mxCell id="pL0jiH8a0vZa1n5NFR9_-0" value="" style="rounded=0;whiteSpace=wrap;html=1;" parent="NZt1Lb_v4ALtRXbboDrd-1" vertex="1">
                    <mxGeometry x="71" y="530" width="990" height="95" as="geometry"/>
                </mxCell>
                <mxCell id="pL0jiH8a0vZa1n5NFR9_-1" value="key3" style="rounded=0;whiteSpace=wrap;html=1;" parent="NZt1Lb_v4ALtRXbboDrd-1" vertex="1">
                    <mxGeometry x="791" y="547.5" width="120" height="60" as="geometry"/>
                </mxCell>
                <mxCell id="pL0jiH8a0vZa1n5NFR9_-3" value="key2" style="rounded=0;whiteSpace=wrap;html=1;" parent="NZt1Lb_v4ALtRXbboDrd-1" vertex="1">
                    <mxGeometry x="521" y="547.5" width="120" height="60" as="geometry"/>
                </mxCell>
                <mxCell id="pL0jiH8a0vZa1n5NFR9_-5" value="key1" style="rounded=0;whiteSpace=wrap;html=1;" parent="NZt1Lb_v4ALtRXbboDrd-1" vertex="1">
                    <mxGeometry x="234" y="547.5" width="120" height="60" as="geometry"/>
                </mxCell>
                <mxCell id="pL0jiH8a0vZa1n5NFR9_-7" value="Delete" style="text;html=1;strokeColor=none;fillColor=none;align=center;verticalAlign=middle;whiteSpace=wrap;rounded=0;" parent="NZt1Lb_v4ALtRXbboDrd-1" vertex="1">
                    <mxGeometry x="126" y="562.5" width="60" height="30" as="geometry"/>
                </mxCell>
                <mxCell id="pL0jiH8a0vZa1n5NFR9_-8" value="ts4" style="text;html=1;strokeColor=none;fillColor=none;align=center;verticalAlign=middle;whiteSpace=wrap;rounded=0;" parent="NZt1Lb_v4ALtRXbboDrd-1" vertex="1">
                    <mxGeometry x="71" y="562.5" width="60" height="30" as="geometry"/>
                </mxCell>
            </root>
        </mxGraphModel>
    </diagram>
    <diagram name="遍历排序方式-删除" id="5C3dU0BIEfYohJM84DKi">
        <mxGraphModel dx="1572" dy="1974" grid="1" gridSize="10" guides="1" tooltips="1" connect="1" arrows="1" fold="1" page="1" pageScale="1" pageWidth="1169" pageHeight="827" math="0" shadow="0">
            <root>
                <mxCell id="GscAxgKGullBdrEGG0K--0"/>
                <mxCell id="GscAxgKGullBdrEGG0K--1" parent="GscAxgKGullBdrEGG0K--0"/>
                <mxCell id="GscAxgKGullBdrEGG0K--2" value="" style="rounded=0;whiteSpace=wrap;html=1;" parent="GscAxgKGullBdrEGG0K--1" vertex="1">
                    <mxGeometry x="200" y="670" width="620" height="319" as="geometry"/>
                </mxCell>
                <mxCell id="GscAxgKGullBdrEGG0K--3" value="" style="rounded=0;whiteSpace=wrap;html=1;" parent="GscAxgKGullBdrEGG0K--1" vertex="1">
                    <mxGeometry x="200" y="290" width="620" height="332" as="geometry"/>
                </mxCell>
                <mxCell id="GscAxgKGullBdrEGG0K--4" value="" style="rounded=0;whiteSpace=wrap;html=1;" parent="GscAxgKGullBdrEGG0K--1" vertex="1">
                    <mxGeometry x="200" y="-80" width="620" height="349" as="geometry"/>
                </mxCell>
                <mxCell id="GscAxgKGullBdrEGG0K--5" value="key3" style="rounded=0;whiteSpace=wrap;html=1;" parent="GscAxgKGullBdrEGG0K--1" vertex="1">
                    <mxGeometry x="232" y="749" width="120" height="60" as="geometry"/>
                </mxCell>
                <mxCell id="GscAxgKGullBdrEGG0K--6" value="ts3" style="rounded=0;whiteSpace=wrap;html=1;" parent="GscAxgKGullBdrEGG0K--1" vertex="1">
                    <mxGeometry x="352" y="749" width="120" height="60" as="geometry"/>
                </mxCell>
                <mxCell id="GscAxgKGullBdrEGG0K--7" value="value3(333)" style="rounded=0;whiteSpace=wrap;html=1;" parent="GscAxgKGullBdrEGG0K--1" vertex="1">
                    <mxGeometry x="552" y="749" width="120" height="60" as="geometry"/>
                </mxCell>
                <mxCell id="GscAxgKGullBdrEGG0K--8" value="put" style="rounded=0;whiteSpace=wrap;html=1;" parent="GscAxgKGullBdrEGG0K--1" vertex="1">
                    <mxGeometry x="672" y="749" width="120" height="60" as="geometry"/>
                </mxCell>
                <mxCell id="GscAxgKGullBdrEGG0K--9" value="key3" style="rounded=0;whiteSpace=wrap;html=1;" parent="GscAxgKGullBdrEGG0K--1" vertex="1">
                    <mxGeometry x="232" y="832" width="120" height="60" as="geometry"/>
                </mxCell>
                <mxCell id="GscAxgKGullBdrEGG0K--10" value="ts2" style="rounded=0;whiteSpace=wrap;html=1;" parent="GscAxgKGullBdrEGG0K--1" vertex="1">
                    <mxGeometry x="352" y="832" width="120" height="60" as="geometry"/>
                </mxCell>
                <mxCell id="GscAxgKGullBdrEGG0K--11" value="value3(33)" style="rounded=0;whiteSpace=wrap;html=1;" parent="GscAxgKGullBdrEGG0K--1" vertex="1">
                    <mxGeometry x="552" y="832" width="120" height="60" as="geometry"/>
                </mxCell>
                <mxCell id="GscAxgKGullBdrEGG0K--12" value="put" style="rounded=0;whiteSpace=wrap;html=1;" parent="GscAxgKGullBdrEGG0K--1" vertex="1">
                    <mxGeometry x="672" y="832" width="120" height="60" as="geometry"/>
                </mxCell>
                <mxCell id="GscAxgKGullBdrEGG0K--13" value="key3" style="rounded=0;whiteSpace=wrap;html=1;" parent="GscAxgKGullBdrEGG0K--1" vertex="1">
                    <mxGeometry x="233" y="916" width="120" height="60" as="geometry"/>
                </mxCell>
                <mxCell id="GscAxgKGullBdrEGG0K--14" value="ts1" style="rounded=0;whiteSpace=wrap;html=1;" parent="GscAxgKGullBdrEGG0K--1" vertex="1">
                    <mxGeometry x="353" y="916" width="120" height="60" as="geometry"/>
                </mxCell>
                <mxCell id="GscAxgKGullBdrEGG0K--15" value="value3(3)" style="rounded=0;whiteSpace=wrap;html=1;" parent="GscAxgKGullBdrEGG0K--1" vertex="1">
                    <mxGeometry x="553" y="916" width="120" height="60" as="geometry"/>
                </mxCell>
                <mxCell id="GscAxgKGullBdrEGG0K--16" value="put" style="rounded=0;whiteSpace=wrap;html=1;" parent="GscAxgKGullBdrEGG0K--1" vertex="1">
                    <mxGeometry x="673" y="916" width="120" height="60" as="geometry"/>
                </mxCell>
                <mxCell id="GscAxgKGullBdrEGG0K--17" value="key2" style="rounded=0;whiteSpace=wrap;html=1;" parent="GscAxgKGullBdrEGG0K--1" vertex="1">
                    <mxGeometry x="231" y="376" width="120" height="60" as="geometry"/>
                </mxCell>
                <mxCell id="GscAxgKGullBdrEGG0K--18" value="ts3" style="rounded=0;whiteSpace=wrap;html=1;" parent="GscAxgKGullBdrEGG0K--1" vertex="1">
                    <mxGeometry x="351" y="376" width="120" height="60" as="geometry"/>
                </mxCell>
                <mxCell id="GscAxgKGullBdrEGG0K--19" value="value2(222)" style="rounded=0;whiteSpace=wrap;html=1;" parent="GscAxgKGullBdrEGG0K--1" vertex="1">
                    <mxGeometry x="551" y="376" width="120" height="60" as="geometry"/>
                </mxCell>
                <mxCell id="GscAxgKGullBdrEGG0K--20" value="put" style="rounded=0;whiteSpace=wrap;html=1;" parent="GscAxgKGullBdrEGG0K--1" vertex="1">
                    <mxGeometry x="671" y="376" width="120" height="60" as="geometry"/>
                </mxCell>
                <mxCell id="GscAxgKGullBdrEGG0K--21" value="key2" style="rounded=0;whiteSpace=wrap;html=1;" parent="GscAxgKGullBdrEGG0K--1" vertex="1">
                    <mxGeometry x="231" y="458" width="120" height="60" as="geometry"/>
                </mxCell>
                <mxCell id="GscAxgKGullBdrEGG0K--22" value="ts2" style="rounded=0;whiteSpace=wrap;html=1;" parent="GscAxgKGullBdrEGG0K--1" vertex="1">
                    <mxGeometry x="351" y="458" width="120" height="60" as="geometry"/>
                </mxCell>
                <mxCell id="GscAxgKGullBdrEGG0K--23" value="value2(22)" style="rounded=0;whiteSpace=wrap;html=1;" parent="GscAxgKGullBdrEGG0K--1" vertex="1">
                    <mxGeometry x="551" y="458" width="120" height="60" as="geometry"/>
                </mxCell>
                <mxCell id="GscAxgKGullBdrEGG0K--24" value="put" style="rounded=0;whiteSpace=wrap;html=1;" parent="GscAxgKGullBdrEGG0K--1" vertex="1">
                    <mxGeometry x="671" y="458" width="120" height="60" as="geometry"/>
                </mxCell>
                <mxCell id="GscAxgKGullBdrEGG0K--25" value="key2" style="rounded=0;whiteSpace=wrap;html=1;" parent="GscAxgKGullBdrEGG0K--1" vertex="1">
                    <mxGeometry x="232" y="542" width="120" height="60" as="geometry"/>
                </mxCell>
                <mxCell id="GscAxgKGullBdrEGG0K--26" value="ts1" style="rounded=0;whiteSpace=wrap;html=1;" parent="GscAxgKGullBdrEGG0K--1" vertex="1">
                    <mxGeometry x="352" y="542" width="120" height="60" as="geometry"/>
                </mxCell>
                <mxCell id="GscAxgKGullBdrEGG0K--27" value="value2(2)" style="rounded=0;whiteSpace=wrap;html=1;" parent="GscAxgKGullBdrEGG0K--1" vertex="1">
                    <mxGeometry x="552" y="542" width="120" height="60" as="geometry"/>
                </mxCell>
                <mxCell id="GscAxgKGullBdrEGG0K--28" value="put" style="rounded=0;whiteSpace=wrap;html=1;" parent="GscAxgKGullBdrEGG0K--1" vertex="1">
                    <mxGeometry x="672" y="542" width="120" height="60" as="geometry"/>
                </mxCell>
                <mxCell id="GscAxgKGullBdrEGG0K--29" value="key1" style="rounded=0;whiteSpace=wrap;html=1;" parent="GscAxgKGullBdrEGG0K--1" vertex="1">
                    <mxGeometry x="233" y="30" width="120" height="60" as="geometry"/>
                </mxCell>
                <mxCell id="GscAxgKGullBdrEGG0K--30" value="ts3" style="rounded=0;whiteSpace=wrap;html=1;" parent="GscAxgKGullBdrEGG0K--1" vertex="1">
                    <mxGeometry x="353" y="30" width="120" height="60" as="geometry"/>
                </mxCell>
                <mxCell id="GscAxgKGullBdrEGG0K--31" value="value3(111)" style="rounded=0;whiteSpace=wrap;html=1;" parent="GscAxgKGullBdrEGG0K--1" vertex="1">
                    <mxGeometry x="553" y="30" width="120" height="60" as="geometry"/>
                </mxCell>
                <mxCell id="GscAxgKGullBdrEGG0K--32" value="put" style="rounded=0;whiteSpace=wrap;html=1;" parent="GscAxgKGullBdrEGG0K--1" vertex="1">
                    <mxGeometry x="673" y="30" width="120" height="60" as="geometry"/>
                </mxCell>
                <mxCell id="GscAxgKGullBdrEGG0K--33" value="key1" style="rounded=0;whiteSpace=wrap;html=1;" parent="GscAxgKGullBdrEGG0K--1" vertex="1">
                    <mxGeometry x="233" y="112" width="120" height="60" as="geometry"/>
                </mxCell>
                <mxCell id="GscAxgKGullBdrEGG0K--34" value="ts2" style="rounded=0;whiteSpace=wrap;html=1;" parent="GscAxgKGullBdrEGG0K--1" vertex="1">
                    <mxGeometry x="353" y="112" width="120" height="60" as="geometry"/>
                </mxCell>
                <mxCell id="GscAxgKGullBdrEGG0K--35" value="value3(11)" style="rounded=0;whiteSpace=wrap;html=1;" parent="GscAxgKGullBdrEGG0K--1" vertex="1">
                    <mxGeometry x="553" y="112" width="120" height="60" as="geometry"/>
                </mxCell>
                <mxCell id="GscAxgKGullBdrEGG0K--36" value="put" style="rounded=0;whiteSpace=wrap;html=1;" parent="GscAxgKGullBdrEGG0K--1" vertex="1">
                    <mxGeometry x="673" y="112" width="120" height="60" as="geometry"/>
                </mxCell>
                <mxCell id="GscAxgKGullBdrEGG0K--37" value="key1" style="rounded=0;whiteSpace=wrap;html=1;" parent="GscAxgKGullBdrEGG0K--1" vertex="1">
                    <mxGeometry x="234" y="196" width="120" height="60" as="geometry"/>
                </mxCell>
                <mxCell id="GscAxgKGullBdrEGG0K--38" value="ts1" style="rounded=0;whiteSpace=wrap;html=1;" parent="GscAxgKGullBdrEGG0K--1" vertex="1">
                    <mxGeometry x="354" y="196" width="120" height="60" as="geometry"/>
                </mxCell>
                <mxCell id="GscAxgKGullBdrEGG0K--39" value="value3(1)" style="rounded=0;whiteSpace=wrap;html=1;" parent="GscAxgKGullBdrEGG0K--1" vertex="1">
                    <mxGeometry x="554" y="196" width="120" height="60" as="geometry"/>
                </mxCell>
                <mxCell id="GscAxgKGullBdrEGG0K--40" value="put" style="rounded=0;whiteSpace=wrap;html=1;" parent="GscAxgKGullBdrEGG0K--1" vertex="1">
                    <mxGeometry x="674" y="196" width="120" height="60" as="geometry"/>
                </mxCell>
                <mxCell id="7F22IPsX7WZHzkgoAG7F-0" value="key1" style="rounded=0;whiteSpace=wrap;html=1;" parent="GscAxgKGullBdrEGG0K--1" vertex="1">
                    <mxGeometry x="233" y="-50" width="120" height="60" as="geometry"/>
                </mxCell>
                <mxCell id="7F22IPsX7WZHzkgoAG7F-1" value="ts4" style="rounded=0;whiteSpace=wrap;html=1;" parent="GscAxgKGullBdrEGG0K--1" vertex="1">
                    <mxGeometry x="353" y="-50" width="120" height="60" as="geometry"/>
                </mxCell>
                <mxCell id="7F22IPsX7WZHzkgoAG7F-2" value="空" style="rounded=0;whiteSpace=wrap;html=1;" parent="GscAxgKGullBdrEGG0K--1" vertex="1">
                    <mxGeometry x="553" y="-50" width="120" height="60" as="geometry"/>
                </mxCell>
                <mxCell id="7F22IPsX7WZHzkgoAG7F-3" value="delete" style="rounded=0;whiteSpace=wrap;html=1;" parent="GscAxgKGullBdrEGG0K--1" vertex="1">
                    <mxGeometry x="673" y="-50" width="120" height="60" as="geometry"/>
                </mxCell>
                <mxCell id="7F22IPsX7WZHzkgoAG7F-4" value="key2" style="rounded=0;whiteSpace=wrap;html=1;" parent="GscAxgKGullBdrEGG0K--1" vertex="1">
                    <mxGeometry x="233" y="306" width="120" height="60" as="geometry"/>
                </mxCell>
                <mxCell id="7F22IPsX7WZHzkgoAG7F-5" value="ts4" style="rounded=0;whiteSpace=wrap;html=1;" parent="GscAxgKGullBdrEGG0K--1" vertex="1">
                    <mxGeometry x="353" y="306" width="120" height="60" as="geometry"/>
                </mxCell>
                <mxCell id="7F22IPsX7WZHzkgoAG7F-6" value="空" style="rounded=0;whiteSpace=wrap;html=1;" parent="GscAxgKGullBdrEGG0K--1" vertex="1">
                    <mxGeometry x="553" y="306" width="120" height="60" as="geometry"/>
                </mxCell>
                <mxCell id="7F22IPsX7WZHzkgoAG7F-7" value="delete" style="rounded=0;whiteSpace=wrap;html=1;" parent="GscAxgKGullBdrEGG0K--1" vertex="1">
                    <mxGeometry x="673" y="306" width="120" height="60" as="geometry"/>
                </mxCell>
                <mxCell id="7F22IPsX7WZHzkgoAG7F-8" value="key3" style="rounded=0;whiteSpace=wrap;html=1;" parent="GscAxgKGullBdrEGG0K--1" vertex="1">
                    <mxGeometry x="232" y="678" width="120" height="60" as="geometry"/>
                </mxCell>
                <mxCell id="7F22IPsX7WZHzkgoAG7F-9" value="ts4" style="rounded=0;whiteSpace=wrap;html=1;" parent="GscAxgKGullBdrEGG0K--1" vertex="1">
                    <mxGeometry x="352" y="678" width="120" height="60" as="geometry"/>
                </mxCell>
                <mxCell id="7F22IPsX7WZHzkgoAG7F-10" value="空" style="rounded=0;whiteSpace=wrap;html=1;" parent="GscAxgKGullBdrEGG0K--1" vertex="1">
                    <mxGeometry x="552" y="678" width="120" height="60" as="geometry"/>
                </mxCell>
                <mxCell id="7F22IPsX7WZHzkgoAG7F-11" value="delete" style="rounded=0;whiteSpace=wrap;html=1;" parent="GscAxgKGullBdrEGG0K--1" vertex="1">
                    <mxGeometry x="672" y="678" width="120" height="60" as="geometry"/>
                </mxCell>
            </root>
        </mxGraphModel>
    </diagram>
    <diagram name="gc 删除策略4" id="MVPSJ9DziAaaHQzij0jw">
        <mxGraphModel dx="1572" dy="1147" grid="1" gridSize="10" guides="1" tooltips="1" connect="1" arrows="1" fold="1" page="1" pageScale="1" pageWidth="1169" pageHeight="827" math="0" shadow="0">
            <root>
                <mxCell id="kYfzOik9MaXg7qZ3z98g-0"/>
                <mxCell id="kYfzOik9MaXg7qZ3z98g-1" parent="kYfzOik9MaXg7qZ3z98g-0"/>
                <mxCell id="kYfzOik9MaXg7qZ3z98g-2" value="key3" style="rounded=0;whiteSpace=wrap;html=1;dashed=1;" parent="kYfzOik9MaXg7qZ3z98g-1" vertex="1">
                    <mxGeometry x="1060" y="202.5" width="120" height="60" as="geometry"/>
                </mxCell>
                <mxCell id="kYfzOik9MaXg7qZ3z98g-3" value="ts3" style="rounded=0;whiteSpace=wrap;html=1;dashed=1;" parent="kYfzOik9MaXg7qZ3z98g-1" vertex="1">
                    <mxGeometry x="1180" y="202.5" width="120" height="60" as="geometry"/>
                </mxCell>
                <mxCell id="kYfzOik9MaXg7qZ3z98g-4" value="value3(333)" style="rounded=0;whiteSpace=wrap;html=1;dashed=1;" parent="kYfzOik9MaXg7qZ3z98g-1" vertex="1">
                    <mxGeometry x="1318" y="202.5" width="120" height="60" as="geometry"/>
                </mxCell>
                <mxCell id="kYfzOik9MaXg7qZ3z98g-5" value="put" style="rounded=0;whiteSpace=wrap;html=1;dashed=1;" parent="kYfzOik9MaXg7qZ3z98g-1" vertex="1">
                    <mxGeometry x="1438" y="202.5" width="120" height="60" as="geometry"/>
                </mxCell>
                <mxCell id="kYfzOik9MaXg7qZ3z98g-6" value="key3" style="rounded=0;whiteSpace=wrap;html=1;dashed=1;" parent="kYfzOik9MaXg7qZ3z98g-1" vertex="1">
                    <mxGeometry x="1060" y="304.5" width="120" height="60" as="geometry"/>
                </mxCell>
                <mxCell id="kYfzOik9MaXg7qZ3z98g-7" value="ts2" style="rounded=0;whiteSpace=wrap;html=1;dashed=1;" parent="kYfzOik9MaXg7qZ3z98g-1" vertex="1">
                    <mxGeometry x="1180" y="304.5" width="120" height="60" as="geometry"/>
                </mxCell>
                <mxCell id="kYfzOik9MaXg7qZ3z98g-8" value="value3(33)" style="rounded=0;whiteSpace=wrap;html=1;dashed=1;" parent="kYfzOik9MaXg7qZ3z98g-1" vertex="1">
                    <mxGeometry x="1318" y="304.5" width="120" height="60" as="geometry"/>
                </mxCell>
                <mxCell id="kYfzOik9MaXg7qZ3z98g-9" value="put" style="rounded=0;whiteSpace=wrap;html=1;dashed=1;" parent="kYfzOik9MaXg7qZ3z98g-1" vertex="1">
                    <mxGeometry x="1438" y="304.5" width="120" height="60" as="geometry"/>
                </mxCell>
                <mxCell id="kYfzOik9MaXg7qZ3z98g-10" value="key3" style="rounded=0;whiteSpace=wrap;html=1;dashed=1;" parent="kYfzOik9MaXg7qZ3z98g-1" vertex="1">
                    <mxGeometry x="1061" y="408.5" width="120" height="60" as="geometry"/>
                </mxCell>
                <mxCell id="kYfzOik9MaXg7qZ3z98g-11" value="ts1" style="rounded=0;whiteSpace=wrap;html=1;dashed=1;" parent="kYfzOik9MaXg7qZ3z98g-1" vertex="1">
                    <mxGeometry x="1181" y="408.5" width="120" height="60" as="geometry"/>
                </mxCell>
                <mxCell id="kYfzOik9MaXg7qZ3z98g-12" value="value3(3)" style="rounded=0;whiteSpace=wrap;html=1;dashed=1;" parent="kYfzOik9MaXg7qZ3z98g-1" vertex="1">
                    <mxGeometry x="1319" y="408.5" width="120" height="60" as="geometry"/>
                </mxCell>
                <mxCell id="kYfzOik9MaXg7qZ3z98g-13" value="put" style="rounded=0;whiteSpace=wrap;html=1;dashed=1;" parent="kYfzOik9MaXg7qZ3z98g-1" vertex="1">
                    <mxGeometry x="1439" y="408.5" width="120" height="60" as="geometry"/>
                </mxCell>
                <mxCell id="kYfzOik9MaXg7qZ3z98g-14" value="key2" style="rounded=0;whiteSpace=wrap;html=1;dashed=1;" parent="kYfzOik9MaXg7qZ3z98g-1" vertex="1">
                    <mxGeometry x="530" y="204" width="120" height="60" as="geometry"/>
                </mxCell>
                <mxCell id="kYfzOik9MaXg7qZ3z98g-15" value="ts3" style="rounded=0;whiteSpace=wrap;html=1;dashed=1;" parent="kYfzOik9MaXg7qZ3z98g-1" vertex="1">
                    <mxGeometry x="650" y="204" width="120" height="60" as="geometry"/>
                </mxCell>
                <mxCell id="kYfzOik9MaXg7qZ3z98g-16" value="value2(222)" style="rounded=0;whiteSpace=wrap;html=1;dashed=1;" parent="kYfzOik9MaXg7qZ3z98g-1" vertex="1">
                    <mxGeometry x="788" y="204" width="120" height="60" as="geometry"/>
                </mxCell>
                <mxCell id="kYfzOik9MaXg7qZ3z98g-17" value="put" style="rounded=0;whiteSpace=wrap;html=1;dashed=1;" parent="kYfzOik9MaXg7qZ3z98g-1" vertex="1">
                    <mxGeometry x="908" y="204" width="120" height="60" as="geometry"/>
                </mxCell>
                <mxCell id="kYfzOik9MaXg7qZ3z98g-18" value="key2" style="rounded=0;whiteSpace=wrap;html=1;dashed=1;" parent="kYfzOik9MaXg7qZ3z98g-1" vertex="1">
                    <mxGeometry x="530" y="305" width="120" height="60" as="geometry"/>
                </mxCell>
                <mxCell id="kYfzOik9MaXg7qZ3z98g-19" value="ts2" style="rounded=0;whiteSpace=wrap;html=1;dashed=1;" parent="kYfzOik9MaXg7qZ3z98g-1" vertex="1">
                    <mxGeometry x="650" y="305" width="120" height="60" as="geometry"/>
                </mxCell>
                <mxCell id="kYfzOik9MaXg7qZ3z98g-20" value="value2(22)" style="rounded=0;whiteSpace=wrap;html=1;dashed=1;" parent="kYfzOik9MaXg7qZ3z98g-1" vertex="1">
                    <mxGeometry x="788" y="305" width="120" height="60" as="geometry"/>
                </mxCell>
                <mxCell id="kYfzOik9MaXg7qZ3z98g-21" value="put" style="rounded=0;whiteSpace=wrap;html=1;dashed=1;" parent="kYfzOik9MaXg7qZ3z98g-1" vertex="1">
                    <mxGeometry x="908" y="305" width="120" height="60" as="geometry"/>
                </mxCell>
                <mxCell id="kYfzOik9MaXg7qZ3z98g-22" value="key2" style="rounded=0;whiteSpace=wrap;html=1;dashed=1;" parent="kYfzOik9MaXg7qZ3z98g-1" vertex="1">
                    <mxGeometry x="531" y="409" width="120" height="60" as="geometry"/>
                </mxCell>
                <mxCell id="kYfzOik9MaXg7qZ3z98g-23" value="ts1" style="rounded=0;whiteSpace=wrap;html=1;dashed=1;" parent="kYfzOik9MaXg7qZ3z98g-1" vertex="1">
                    <mxGeometry x="651" y="409" width="120" height="60" as="geometry"/>
                </mxCell>
                <mxCell id="kYfzOik9MaXg7qZ3z98g-24" value="value2(2)" style="rounded=0;whiteSpace=wrap;html=1;dashed=1;" parent="kYfzOik9MaXg7qZ3z98g-1" vertex="1">
                    <mxGeometry x="789" y="409" width="120" height="60" as="geometry"/>
                </mxCell>
                <mxCell id="kYfzOik9MaXg7qZ3z98g-25" value="put" style="rounded=0;whiteSpace=wrap;html=1;dashed=1;" parent="kYfzOik9MaXg7qZ3z98g-1" vertex="1">
                    <mxGeometry x="909" y="409" width="120" height="60" as="geometry"/>
                </mxCell>
                <mxCell id="kYfzOik9MaXg7qZ3z98g-26" value="key1" style="rounded=0;whiteSpace=wrap;html=1;dashed=1;" parent="kYfzOik9MaXg7qZ3z98g-1" vertex="1">
                    <mxGeometry x="21" y="204" width="120" height="60" as="geometry"/>
                </mxCell>
                <mxCell id="kYfzOik9MaXg7qZ3z98g-27" value="ts3" style="rounded=0;whiteSpace=wrap;html=1;dashed=1;" parent="kYfzOik9MaXg7qZ3z98g-1" vertex="1">
                    <mxGeometry x="141" y="204" width="120" height="60" as="geometry"/>
                </mxCell>
                <mxCell id="kYfzOik9MaXg7qZ3z98g-28" value="value3(111)" style="rounded=0;whiteSpace=wrap;html=1;dashed=1;" parent="kYfzOik9MaXg7qZ3z98g-1" vertex="1">
                    <mxGeometry x="281" y="204" width="120" height="60" as="geometry"/>
                </mxCell>
                <mxCell id="kYfzOik9MaXg7qZ3z98g-29" value="put" style="rounded=0;whiteSpace=wrap;html=1;dashed=1;" parent="kYfzOik9MaXg7qZ3z98g-1" vertex="1">
                    <mxGeometry x="401" y="204" width="120" height="60" as="geometry"/>
                </mxCell>
                <mxCell id="kYfzOik9MaXg7qZ3z98g-30" value="key1" style="rounded=0;whiteSpace=wrap;html=1;dashed=1;" parent="kYfzOik9MaXg7qZ3z98g-1" vertex="1">
                    <mxGeometry x="21" y="305" width="120" height="60" as="geometry"/>
                </mxCell>
                <mxCell id="kYfzOik9MaXg7qZ3z98g-31" value="ts2" style="rounded=0;whiteSpace=wrap;html=1;dashed=1;" parent="kYfzOik9MaXg7qZ3z98g-1" vertex="1">
                    <mxGeometry x="141" y="305" width="120" height="60" as="geometry"/>
                </mxCell>
                <mxCell id="kYfzOik9MaXg7qZ3z98g-32" value="value3(11)" style="rounded=0;whiteSpace=wrap;html=1;dashed=1;" parent="kYfzOik9MaXg7qZ3z98g-1" vertex="1">
                    <mxGeometry x="281" y="305" width="120" height="60" as="geometry"/>
                </mxCell>
                <mxCell id="kYfzOik9MaXg7qZ3z98g-33" value="put" style="rounded=0;whiteSpace=wrap;html=1;dashed=1;" parent="kYfzOik9MaXg7qZ3z98g-1" vertex="1">
                    <mxGeometry x="401" y="305" width="120" height="60" as="geometry"/>
                </mxCell>
                <mxCell id="kYfzOik9MaXg7qZ3z98g-34" value="key1" style="rounded=0;whiteSpace=wrap;html=1;dashed=1;" parent="kYfzOik9MaXg7qZ3z98g-1" vertex="1">
                    <mxGeometry x="22" y="409" width="120" height="60" as="geometry"/>
                </mxCell>
                <mxCell id="kYfzOik9MaXg7qZ3z98g-35" value="ts1" style="rounded=0;whiteSpace=wrap;html=1;dashed=1;" parent="kYfzOik9MaXg7qZ3z98g-1" vertex="1">
                    <mxGeometry x="142" y="409" width="120" height="60" as="geometry"/>
                </mxCell>
                <mxCell id="kYfzOik9MaXg7qZ3z98g-36" value="value3(1)" style="rounded=0;whiteSpace=wrap;html=1;dashed=1;" parent="kYfzOik9MaXg7qZ3z98g-1" vertex="1">
                    <mxGeometry x="282" y="409" width="120" height="60" as="geometry"/>
                </mxCell>
                <mxCell id="kYfzOik9MaXg7qZ3z98g-37" value="put" style="rounded=0;whiteSpace=wrap;html=1;dashed=1;" parent="kYfzOik9MaXg7qZ3z98g-1" vertex="1">
                    <mxGeometry x="402" y="409" width="120" height="60" as="geometry"/>
                </mxCell>
                <mxCell id="kYfzOik9MaXg7qZ3z98g-38" value="" style="endArrow=none;html=1;startArrow=none;" parent="kYfzOik9MaXg7qZ3z98g-1" edge="1">
                    <mxGeometry width="50" height="50" relative="1" as="geometry">
                        <mxPoint x="681" y="77.0326441784548" as="sourcePoint"/>
                        <mxPoint x="1570" y="78" as="targetPoint"/>
                    </mxGeometry>
                </mxCell>
                <mxCell id="kYfzOik9MaXg7qZ3z98g-39" value="" style="endArrow=none;html=1;" parent="kYfzOik9MaXg7qZ3z98g-1" target="kYfzOik9MaXg7qZ3z98g-40" edge="1">
                    <mxGeometry width="50" height="50" relative="1" as="geometry">
                        <mxPoint x="20" y="78" as="sourcePoint"/>
                        <mxPoint x="1570" y="49" as="targetPoint"/>
                    </mxGeometry>
                </mxCell>
                <mxCell id="kYfzOik9MaXg7qZ3z98g-40" value="ts4" style="text;html=1;strokeColor=none;fillColor=none;align=center;verticalAlign=middle;whiteSpace=wrap;rounded=0;" parent="kYfzOik9MaXg7qZ3z98g-1" vertex="1">
                    <mxGeometry x="621" y="63" width="60" height="30" as="geometry"/>
                </mxCell>
                <mxCell id="dNm50plSagOkav_qhKfk-0" value="key3" style="rounded=0;whiteSpace=wrap;html=1;dashed=1;" parent="kYfzOik9MaXg7qZ3z98g-1" vertex="1">
                    <mxGeometry x="1058" y="116.5" width="120" height="60" as="geometry"/>
                </mxCell>
                <mxCell id="dNm50plSagOkav_qhKfk-1" value="ts4" style="rounded=0;whiteSpace=wrap;html=1;dashed=1;" parent="kYfzOik9MaXg7qZ3z98g-1" vertex="1">
                    <mxGeometry x="1178" y="116.5" width="120" height="60" as="geometry"/>
                </mxCell>
                <mxCell id="dNm50plSagOkav_qhKfk-2" value="空" style="rounded=0;whiteSpace=wrap;html=1;dashed=1;" parent="kYfzOik9MaXg7qZ3z98g-1" vertex="1">
                    <mxGeometry x="1316" y="116.5" width="120" height="60" as="geometry"/>
                </mxCell>
                <mxCell id="dNm50plSagOkav_qhKfk-3" value="delete" style="rounded=0;whiteSpace=wrap;html=1;dashed=1;" parent="kYfzOik9MaXg7qZ3z98g-1" vertex="1">
                    <mxGeometry x="1436" y="116.5" width="120" height="60" as="geometry"/>
                </mxCell>
                <mxCell id="dNm50plSagOkav_qhKfk-4" value="key2" style="rounded=0;whiteSpace=wrap;html=1;dashed=1;" parent="kYfzOik9MaXg7qZ3z98g-1" vertex="1">
                    <mxGeometry x="528" y="118" width="120" height="60" as="geometry"/>
                </mxCell>
                <mxCell id="dNm50plSagOkav_qhKfk-5" value="ts4" style="rounded=0;whiteSpace=wrap;html=1;dashed=1;" parent="kYfzOik9MaXg7qZ3z98g-1" vertex="1">
                    <mxGeometry x="648" y="118" width="120" height="60" as="geometry"/>
                </mxCell>
                <mxCell id="dNm50plSagOkav_qhKfk-6" value="空" style="rounded=0;whiteSpace=wrap;html=1;dashed=1;" parent="kYfzOik9MaXg7qZ3z98g-1" vertex="1">
                    <mxGeometry x="786" y="118" width="120" height="60" as="geometry"/>
                </mxCell>
                <mxCell id="dNm50plSagOkav_qhKfk-7" value="delete" style="rounded=0;whiteSpace=wrap;html=1;dashed=1;" parent="kYfzOik9MaXg7qZ3z98g-1" vertex="1">
                    <mxGeometry x="906" y="118" width="120" height="60" as="geometry"/>
                </mxCell>
                <mxCell id="dNm50plSagOkav_qhKfk-8" value="key1" style="rounded=0;whiteSpace=wrap;html=1;dashed=1;" parent="kYfzOik9MaXg7qZ3z98g-1" vertex="1">
                    <mxGeometry x="19" y="118" width="120" height="60" as="geometry"/>
                </mxCell>
                <mxCell id="dNm50plSagOkav_qhKfk-9" value="ts4" style="rounded=0;whiteSpace=wrap;html=1;dashed=1;" parent="kYfzOik9MaXg7qZ3z98g-1" vertex="1">
                    <mxGeometry x="139" y="118" width="120" height="60" as="geometry"/>
                </mxCell>
                <mxCell id="dNm50plSagOkav_qhKfk-10" value="空" style="rounded=0;whiteSpace=wrap;html=1;dashed=1;" parent="kYfzOik9MaXg7qZ3z98g-1" vertex="1">
                    <mxGeometry x="279" y="118" width="120" height="60" as="geometry"/>
                </mxCell>
                <mxCell id="dNm50plSagOkav_qhKfk-11" value="delete" style="rounded=0;whiteSpace=wrap;html=1;dashed=1;" parent="kYfzOik9MaXg7qZ3z98g-1" vertex="1">
                    <mxGeometry x="399" y="118" width="120" height="60" as="geometry"/>
                </mxCell>
            </root>
        </mxGraphModel>
    </diagram>
    <diagram name="TTL数据" id="vB4PW67D7LC5D6mF4vq6">
        <mxGraphModel dx="1572" dy="1147" grid="1" gridSize="10" guides="1" tooltips="1" connect="1" arrows="1" fold="1" page="1" pageScale="1" pageWidth="1169" pageHeight="827" math="0" shadow="0">
            <root>
                <mxCell id="GRIYbSndM8zVw1XFcIDJ-0"/>
                <mxCell id="GRIYbSndM8zVw1XFcIDJ-1" parent="GRIYbSndM8zVw1XFcIDJ-0"/>
                <mxCell id="GRIYbSndM8zVw1XFcIDJ-2" value="" style="rounded=0;whiteSpace=wrap;html=1;" parent="GRIYbSndM8zVw1XFcIDJ-1" vertex="1">
                    <mxGeometry x="70" y="391.5" width="990" height="95" as="geometry"/>
                </mxCell>
                <mxCell id="GRIYbSndM8zVw1XFcIDJ-3" value="" style="rounded=0;whiteSpace=wrap;html=1;" parent="GRIYbSndM8zVw1XFcIDJ-1" vertex="1">
                    <mxGeometry x="70" y="252.5" width="990" height="95" as="geometry"/>
                </mxCell>
                <mxCell id="GRIYbSndM8zVw1XFcIDJ-4" value="" style="rounded=0;whiteSpace=wrap;html=1;" parent="GRIYbSndM8zVw1XFcIDJ-1" vertex="1">
                    <mxGeometry x="70" y="115" width="990" height="95" as="geometry"/>
                </mxCell>
                <mxCell id="GRIYbSndM8zVw1XFcIDJ-5" value="key3" style="rounded=0;whiteSpace=wrap;html=1;" parent="GRIYbSndM8zVw1XFcIDJ-1" vertex="1">
                    <mxGeometry x="780" y="130" width="120" height="60" as="geometry"/>
                </mxCell>
                <mxCell id="GRIYbSndM8zVw1XFcIDJ-6" value="value3(3)" style="rounded=0;whiteSpace=wrap;html=1;" parent="GRIYbSndM8zVw1XFcIDJ-1" vertex="1">
                    <mxGeometry x="900" y="130" width="120" height="60" as="geometry"/>
                </mxCell>
                <mxCell id="GRIYbSndM8zVw1XFcIDJ-7" value="key3" style="rounded=0;whiteSpace=wrap;html=1;" parent="GRIYbSndM8zVw1XFcIDJ-1" vertex="1">
                    <mxGeometry x="790" y="409" width="120" height="60" as="geometry"/>
                </mxCell>
                <mxCell id="GRIYbSndM8zVw1XFcIDJ-8" value="value3(333)" style="rounded=0;whiteSpace=wrap;html=1;" parent="GRIYbSndM8zVw1XFcIDJ-1" vertex="1">
                    <mxGeometry x="910" y="409" width="120" height="60" as="geometry"/>
                </mxCell>
                <mxCell id="GRIYbSndM8zVw1XFcIDJ-9" value="key3" style="rounded=0;whiteSpace=wrap;html=1;" parent="GRIYbSndM8zVw1XFcIDJ-1" vertex="1">
                    <mxGeometry x="780" y="270" width="120" height="60" as="geometry"/>
                </mxCell>
                <mxCell id="GRIYbSndM8zVw1XFcIDJ-10" value="value3(33)" style="rounded=0;whiteSpace=wrap;html=1;" parent="GRIYbSndM8zVw1XFcIDJ-1" vertex="1">
                    <mxGeometry x="900" y="270" width="120" height="60" as="geometry"/>
                </mxCell>
                <mxCell id="GRIYbSndM8zVw1XFcIDJ-11" value="key2" style="rounded=0;whiteSpace=wrap;html=1;" parent="GRIYbSndM8zVw1XFcIDJ-1" vertex="1">
                    <mxGeometry x="520" y="409" width="120" height="60" as="geometry"/>
                </mxCell>
                <mxCell id="GRIYbSndM8zVw1XFcIDJ-12" value="value2(222)" style="rounded=0;whiteSpace=wrap;html=1;" parent="GRIYbSndM8zVw1XFcIDJ-1" vertex="1">
                    <mxGeometry x="640" y="409" width="120" height="60" as="geometry"/>
                </mxCell>
                <mxCell id="GRIYbSndM8zVw1XFcIDJ-13" value="key2" style="rounded=0;whiteSpace=wrap;html=1;" parent="GRIYbSndM8zVw1XFcIDJ-1" vertex="1">
                    <mxGeometry x="510" y="270" width="120" height="60" as="geometry"/>
                </mxCell>
                <mxCell id="GRIYbSndM8zVw1XFcIDJ-14" value="value2(22)" style="rounded=0;whiteSpace=wrap;html=1;" parent="GRIYbSndM8zVw1XFcIDJ-1" vertex="1">
                    <mxGeometry x="630" y="270" width="120" height="60" as="geometry"/>
                </mxCell>
                <mxCell id="GRIYbSndM8zVw1XFcIDJ-15" value="key2" style="rounded=0;whiteSpace=wrap;html=1;" parent="GRIYbSndM8zVw1XFcIDJ-1" vertex="1">
                    <mxGeometry x="510" y="130" width="120" height="60" as="geometry"/>
                </mxCell>
                <mxCell id="GRIYbSndM8zVw1XFcIDJ-16" value="value2(2)" style="rounded=0;whiteSpace=wrap;html=1;" parent="GRIYbSndM8zVw1XFcIDJ-1" vertex="1">
                    <mxGeometry x="630" y="130" width="120" height="60" as="geometry"/>
                </mxCell>
                <mxCell id="GRIYbSndM8zVw1XFcIDJ-17" value="key1" style="rounded=0;whiteSpace=wrap;html=1;" parent="GRIYbSndM8zVw1XFcIDJ-1" vertex="1">
                    <mxGeometry x="230" y="130" width="120" height="60" as="geometry"/>
                </mxCell>
                <mxCell id="GRIYbSndM8zVw1XFcIDJ-18" value="value1(1)" style="rounded=0;whiteSpace=wrap;html=1;" parent="GRIYbSndM8zVw1XFcIDJ-1" vertex="1">
                    <mxGeometry x="350" y="130" width="120" height="60" as="geometry"/>
                </mxCell>
                <mxCell id="GRIYbSndM8zVw1XFcIDJ-19" value="key1" style="rounded=0;whiteSpace=wrap;html=1;" parent="GRIYbSndM8zVw1XFcIDJ-1" vertex="1">
                    <mxGeometry x="233" y="409" width="120" height="60" as="geometry"/>
                </mxCell>
                <mxCell id="GRIYbSndM8zVw1XFcIDJ-20" value="value1(111)" style="rounded=0;whiteSpace=wrap;html=1;" parent="GRIYbSndM8zVw1XFcIDJ-1" vertex="1">
                    <mxGeometry x="353" y="409" width="120" height="60" as="geometry"/>
                </mxCell>
                <mxCell id="GRIYbSndM8zVw1XFcIDJ-21" value="key1" style="rounded=0;whiteSpace=wrap;html=1;" parent="GRIYbSndM8zVw1XFcIDJ-1" vertex="1">
                    <mxGeometry x="231" y="270" width="120" height="60" as="geometry"/>
                </mxCell>
                <mxCell id="GRIYbSndM8zVw1XFcIDJ-22" value="value1(11)" style="rounded=0;whiteSpace=wrap;html=1;" parent="GRIYbSndM8zVw1XFcIDJ-1" vertex="1">
                    <mxGeometry x="351" y="270" width="120" height="60" as="geometry"/>
                </mxCell>
                <mxCell id="GRIYbSndM8zVw1XFcIDJ-23" value="ADD" style="text;html=1;strokeColor=none;fillColor=none;align=center;verticalAlign=middle;whiteSpace=wrap;rounded=0;" parent="GRIYbSndM8zVw1XFcIDJ-1" vertex="1">
                    <mxGeometry x="130" y="145" width="60" height="30" as="geometry"/>
                </mxCell>
                <mxCell id="GRIYbSndM8zVw1XFcIDJ-24" value="ADD" style="text;html=1;strokeColor=none;fillColor=none;align=center;verticalAlign=middle;whiteSpace=wrap;rounded=0;" parent="GRIYbSndM8zVw1XFcIDJ-1" vertex="1">
                    <mxGeometry x="125" y="285" width="60" height="30" as="geometry"/>
                </mxCell>
                <mxCell id="GRIYbSndM8zVw1XFcIDJ-25" value="ADD" style="text;html=1;strokeColor=none;fillColor=none;align=center;verticalAlign=middle;whiteSpace=wrap;rounded=0;" parent="GRIYbSndM8zVw1XFcIDJ-1" vertex="1">
                    <mxGeometry x="730" y="1150" width="60" height="30" as="geometry"/>
                </mxCell>
                <mxCell id="GRIYbSndM8zVw1XFcIDJ-26" value="ADD" style="text;html=1;strokeColor=none;fillColor=none;align=center;verticalAlign=middle;whiteSpace=wrap;rounded=0;" parent="GRIYbSndM8zVw1XFcIDJ-1" vertex="1">
                    <mxGeometry x="125" y="424" width="60" height="30" as="geometry"/>
                </mxCell>
                <mxCell id="GRIYbSndM8zVw1XFcIDJ-27" value="ts1" style="text;html=1;strokeColor=none;fillColor=none;align=center;verticalAlign=middle;whiteSpace=wrap;rounded=0;" parent="GRIYbSndM8zVw1XFcIDJ-1" vertex="1">
                    <mxGeometry x="70" y="145" width="60" height="30" as="geometry"/>
                </mxCell>
                <mxCell id="GRIYbSndM8zVw1XFcIDJ-28" value="ts2" style="text;html=1;strokeColor=none;fillColor=none;align=center;verticalAlign=middle;whiteSpace=wrap;rounded=0;" parent="GRIYbSndM8zVw1XFcIDJ-1" vertex="1">
                    <mxGeometry x="70" y="285" width="60" height="30" as="geometry"/>
                </mxCell>
                <mxCell id="GRIYbSndM8zVw1XFcIDJ-29" value="ts3" style="text;html=1;strokeColor=none;fillColor=none;align=center;verticalAlign=middle;whiteSpace=wrap;rounded=0;" parent="GRIYbSndM8zVw1XFcIDJ-1" vertex="1">
                    <mxGeometry x="70" y="424" width="60" height="30" as="geometry"/>
                </mxCell>
                <mxCell id="GRIYbSndM8zVw1XFcIDJ-30" value="" style="rounded=0;whiteSpace=wrap;html=1;" parent="GRIYbSndM8zVw1XFcIDJ-1" vertex="1">
                    <mxGeometry x="71" y="530" width="990" height="95" as="geometry"/>
                </mxCell>
                <mxCell id="GRIYbSndM8zVw1XFcIDJ-31" value="key3" style="rounded=0;whiteSpace=wrap;html=1;" parent="GRIYbSndM8zVw1XFcIDJ-1" vertex="1">
                    <mxGeometry x="791" y="547.5" width="120" height="60" as="geometry"/>
                </mxCell>
                <mxCell id="GRIYbSndM8zVw1XFcIDJ-32" value="key2" style="rounded=0;whiteSpace=wrap;html=1;" parent="GRIYbSndM8zVw1XFcIDJ-1" vertex="1">
                    <mxGeometry x="521" y="547.5" width="120" height="60" as="geometry"/>
                </mxCell>
                <mxCell id="GRIYbSndM8zVw1XFcIDJ-33" value="key1" style="rounded=0;whiteSpace=wrap;html=1;" parent="GRIYbSndM8zVw1XFcIDJ-1" vertex="1">
                    <mxGeometry x="234" y="547.5" width="120" height="60" as="geometry"/>
                </mxCell>
                <mxCell id="GRIYbSndM8zVw1XFcIDJ-34" value="Delete" style="text;html=1;strokeColor=none;fillColor=none;align=center;verticalAlign=middle;whiteSpace=wrap;rounded=0;" parent="GRIYbSndM8zVw1XFcIDJ-1" vertex="1">
                    <mxGeometry x="126" y="562.5" width="60" height="30" as="geometry"/>
                </mxCell>
                <mxCell id="GRIYbSndM8zVw1XFcIDJ-35" value="ts4" style="text;html=1;strokeColor=none;fillColor=none;align=center;verticalAlign=middle;whiteSpace=wrap;rounded=0;" parent="GRIYbSndM8zVw1XFcIDJ-1" vertex="1">
                    <mxGeometry x="71" y="562.5" width="60" height="30" as="geometry"/>
                </mxCell>
                <mxCell id="OLZrFO0DKV0JZ7mp0kPR-0" value="" style="rounded=0;whiteSpace=wrap;html=1;" vertex="1" parent="GRIYbSndM8zVw1XFcIDJ-1">
                    <mxGeometry x="71" y="647.5" width="990" height="95" as="geometry"/>
                </mxCell>
                <mxCell id="OLZrFO0DKV0JZ7mp0kPR-1" value="key3" style="rounded=0;whiteSpace=wrap;html=1;" vertex="1" parent="GRIYbSndM8zVw1XFcIDJ-1">
                    <mxGeometry x="791" y="665" width="59" height="60" as="geometry"/>
                </mxCell>
                <mxCell id="OLZrFO0DKV0JZ7mp0kPR-2" value="value3(333)" style="rounded=0;whiteSpace=wrap;html=1;" vertex="1" parent="GRIYbSndM8zVw1XFcIDJ-1">
                    <mxGeometry x="850" y="665" width="79" height="60" as="geometry"/>
                </mxCell>
                <mxCell id="OLZrFO0DKV0JZ7mp0kPR-3" value="key2" style="rounded=0;whiteSpace=wrap;html=1;" vertex="1" parent="GRIYbSndM8zVw1XFcIDJ-1">
                    <mxGeometry x="521" y="665" width="49" height="60" as="geometry"/>
                </mxCell>
                <mxCell id="OLZrFO0DKV0JZ7mp0kPR-4" value="value2(222)" style="rounded=0;whiteSpace=wrap;html=1;" vertex="1" parent="GRIYbSndM8zVw1XFcIDJ-1">
                    <mxGeometry x="570" y="665" width="79" height="60" as="geometry"/>
                </mxCell>
                <mxCell id="OLZrFO0DKV0JZ7mp0kPR-5" value="key1" style="rounded=0;whiteSpace=wrap;html=1;" vertex="1" parent="GRIYbSndM8zVw1XFcIDJ-1">
                    <mxGeometry x="234" y="665" width="120" height="60" as="geometry"/>
                </mxCell>
                <mxCell id="OLZrFO0DKV0JZ7mp0kPR-6" value="value1(111)" style="rounded=0;whiteSpace=wrap;html=1;" vertex="1" parent="GRIYbSndM8zVw1XFcIDJ-1">
                    <mxGeometry x="310" y="665" width="80" height="60" as="geometry"/>
                </mxCell>
                <mxCell id="OLZrFO0DKV0JZ7mp0kPR-7" value="ADD" style="text;html=1;strokeColor=none;fillColor=none;align=center;verticalAlign=middle;whiteSpace=wrap;rounded=0;" vertex="1" parent="GRIYbSndM8zVw1XFcIDJ-1">
                    <mxGeometry x="126" y="680" width="60" height="30" as="geometry"/>
                </mxCell>
                <mxCell id="OLZrFO0DKV0JZ7mp0kPR-8" value="ts3" style="text;html=1;strokeColor=none;fillColor=none;align=center;verticalAlign=middle;whiteSpace=wrap;rounded=0;" vertex="1" parent="GRIYbSndM8zVw1XFcIDJ-1">
                    <mxGeometry x="71" y="680" width="60" height="30" as="geometry"/>
                </mxCell>
                <mxCell id="OLZrFO0DKV0JZ7mp0kPR-9" value="ttl" style="rounded=0;whiteSpace=wrap;html=1;" vertex="1" parent="GRIYbSndM8zVw1XFcIDJ-1">
                    <mxGeometry x="390" y="665" width="40" height="60" as="geometry"/>
                </mxCell>
                <mxCell id="OLZrFO0DKV0JZ7mp0kPR-10" value="ttl" style="rounded=0;whiteSpace=wrap;html=1;" vertex="1" parent="GRIYbSndM8zVw1XFcIDJ-1">
                    <mxGeometry x="649" y="665" width="40" height="60" as="geometry"/>
                </mxCell>
                <mxCell id="OLZrFO0DKV0JZ7mp0kPR-11" value="ttl" style="rounded=0;whiteSpace=wrap;html=1;" vertex="1" parent="GRIYbSndM8zVw1XFcIDJ-1">
                    <mxGeometry x="929" y="665" width="40" height="60" as="geometry"/>
                </mxCell>
            </root>
        </mxGraphModel>
    </diagram>
</mxfile>